<svg width="856" height="582" viewBox="0 0 856 582" fill="none" xmlns="http://www.w3.org/2000/svg">
<g clip-path="url(#clip0_226_13933)">
<path d="M519.7 326.199C520.434 326.199 521.134 326.366 521.8 326.699C522.534 326.966 523.133 327.333 523.6 327.799C524.133 328.333 524.534 328.933 524.8 329.599C525.067 330.266 525.2 330.966 525.2 331.699V384.899H630.7C632.2 384.899 633.6 385.499 634.6 386.599C635.7 387.599 636.2 388.999 636.2 390.399C636.2 391.899 635.7 393.299 634.6 394.299C633.6 395.399 632.2 395.899 630.7 395.899H525.2V579.899H514.2V331.699C514.2 330.966 514.367 330.266 514.7 329.599C514.967 328.933 515.367 328.333 515.9 327.799C516.367 327.333 516.933 326.966 517.6 326.699C518.267 326.366 518.967 326.199 519.7 326.199Z" fill="#E6E6E6"/>
<path d="M226.1 578.702L206.3 579.202C205.567 579.268 204.834 579.268 204.1 579.202C203.367 579.135 202.634 578.968 201.9 578.702C201.167 578.502 200.467 578.268 199.8 578.002C199.134 577.668 198.467 577.302 197.8 576.902C195.7 575.302 194.7 573.102 195.1 570.902L199 551.302C199.8 547.602 204.3 544.802 209.8 544.702L220.8 544.402C226.3 544.202 230.9 546.702 231.9 550.402L236.9 569.802C237.4 571.902 236.6 574.102 234.5 575.902C233.9 576.302 233.267 576.702 232.6 577.102C231.934 577.435 231.267 577.735 230.6 578.002C229.867 578.202 229.134 578.368 228.4 578.502C227.667 578.635 226.9 578.702 226.1 578.702Z" fill="#3F3D56"/>
<path d="M346.8 578.1L326.9 578.7C326.167 578.7 325.434 578.667 324.7 578.6C323.967 578.533 323.234 578.4 322.5 578.2C321.767 578 321.067 577.733 320.4 577.4C319.734 577.067 319.1 576.7 318.5 576.3C316.3 574.7 315.3 572.5 315.8 570.4L319.7 550.7C320.4 547 324.9 544.2 330.4 544.1L341.4 543.8C346.9 543.6 351.6 546.2 352.5 549.8L357.5 569.2C358 571.4 357.2 573.6 355.1 575.3C354.5 575.767 353.867 576.167 353.2 576.5C352.534 576.833 351.867 577.133 351.2 577.4C350.467 577.667 349.734 577.833 349 577.9C348.267 578.033 347.534 578.1 346.8 578.1Z" fill="#3F3D56"/>
<path d="M157.3 411.602C156.4 411.202 155.6 410.602 155.2 409.702C154.7 408.802 154.6 407.802 154.7 406.802C154.9 405.902 155.4 405.002 156.2 404.402C156.9 403.702 157.9 403.302 158.9 403.302L384.3 397.102C384.9 397.102 385.467 397.202 386 397.402C386.533 397.602 387 397.902 387.4 398.302C387.867 398.702 388.2 399.168 388.4 399.702C388.667 400.168 388.8 400.702 388.8 401.302C388.8 401.902 388.7 402.468 388.5 403.002C388.3 403.535 388 404.002 387.6 404.402C387.2 404.802 386.733 405.135 386.2 405.402C385.667 405.602 385.133 405.735 384.6 405.802L159.1 412.002C158.967 412.002 158.8 412.002 158.6 412.002C158.467 411.935 158.333 411.902 158.2 411.902C158 411.902 157.833 411.868 157.7 411.802C157.567 411.735 157.433 411.668 157.3 411.602Z" fill="#3F3D56"/>
<path d="M176 338.8L240.5 337L246.5 554.6L182.1 556.4L176 338.8Z" fill="#E6E6E6"/>
<path d="M242.1 333.102L244.8 524.902L229.7 520.602V366.802L242.1 333.102Z" fill="#CCCCCC"/>
<path d="M230.6 308.301L231 323.001L187.3 324.201L186.9 309.501C186.7 301.301 195.9 280.501 207.9 280.101C220 279.801 230.3 300.101 230.6 308.301Z" fill="#3F3D56"/>
<path d="M176.9 428.898C175.8 428.898 174.7 428.698 173.6 428.298C172.6 427.898 171.6 427.298 170.8 426.598C170 425.798 169.3 424.898 168.9 423.898C168.4 422.798 168.2 421.698 168.1 420.598L167.5 396.598C167.4 394.398 168.3 392.198 169.8 390.598C171.4 388.898 173.5 387.998 175.7 387.898C178 387.798 180.2 388.698 181.8 390.198C183.5 391.798 184.4 393.898 184.5 396.198L185.1 420.098C185.2 421.298 185 422.398 184.6 423.398C184.2 424.498 183.6 425.398 182.8 426.198C182 426.998 181.1 427.698 180.1 428.098C179.1 428.598 178 428.798 176.9 428.898Z" fill="#3F3D56"/>
<path d="M193.2 339.301L192.9 323.401L197.1 323.301L197.4 339.101L201.2 569.501L197 569.601" fill="#3F3D56"/>
<path d="M247.9 376.4L173.1 378.4C166 369.7 165.4 332.6 180.3 325.6L186.1 315.7L231.1 313.5L236.4 323.9C243.8 330.2 247.6 367.1 247.9 376.4Z" fill="#E6E6E6"/>
<path d="M219.8 358.599L200.9 359.099C197.2 359.199 194.1 354.499 193.9 348.499C193.8 342.599 196.6 337.699 200.3 337.599L219.2 337.099C222.8 336.999 225.9 341.699 226.1 347.699C226.2 353.599 223.4 358.499 219.8 358.599Z" fill="#263571"/>
<path d="M183.2 465.602L182.8 540.002L137.4 555.102L144.2 493.102L183.2 465.602Z" fill="#E6E6E6"/>
<path d="M300.5 336.101L364.9 334.301L370.9 551.901L306.5 553.701L300.5 336.101Z" fill="#E6E6E6"/>
<path d="M302 333.801L315.3 367.201L319.2 520.901L304.3 525.601L302 333.801Z" fill="#CCCCCC"/>
<path d="M397.1 273.901C392.5 273.901 388.7 268.801 388.7 262.601C388.7 256.301 392.5 251.301 397.1 251.301C401.8 251.301 405.6 256.301 405.6 262.601C405.6 268.801 401.8 273.901 397.1 273.901Z" fill="#E6E6E6"/>
<path d="M353.7 305.599L354.1 320.399L310.5 321.599L310 306.799C309.8 298.699 319 277.799 331.1 277.499C343.1 277.199 353.5 297.499 353.7 305.599Z" fill="#3F3D56"/>
<path d="M343.6 344.201L343.3 328.401L347.4 328.301L347.7 344.101L351.5 574.401L347.3 574.601" fill="#3F3D56"/>
<path d="M371 373.701L296.3 375.801C295 367.901 296.7 331.201 303.4 322.901L309.2 313.001L354.3 310.801L359.6 321.301C372.9 322.401 377.5 358.501 371 373.701Z" fill="#E6E6E6"/>
<path d="M343 359.301L324.1 359.801C320.4 359.901 317.3 354.401 317.1 347.601C316.9 340.701 319.8 335.101 323.4 335.001L342.3 334.501C346 334.401 349.1 339.901 349.3 346.701C349.5 353.501 346.6 359.201 343 359.301Z" fill="#263571"/>
<path d="M368.1 449.699L405.7 478.899L409.7 541.199L365 523.999L368.1 449.699Z" fill="#E6E6E6"/>
<path d="M357.6 161.102C317.2 161.102 270.7 116.302 229.6 137.602C105.2 202.102 122.3 94.1016 86.5996 54.0016L87.7996 51.6016C114.8 154.902 139.3 319.302 230.2 134.802C252.9 88.6016 327.6 160.102 371.6 158.002L371.7 160.802C367.033 161.002 362.333 161.102 357.6 161.102Z" fill="#F2F2F2"/>
<path d="M454.6 167.5C422.3 191.9 358.2 184.2 338.4 226C278.1 352.5 226.6 256.1 173.9 245.7L173.4 243.1C226.2 247.5 282.8 240.7 337.1 223.4C386.2 207.9 430 184.7 463.8 156.5L465.6 158.7C462 161.7 458.334 164.633 454.6 167.5Z" fill="#F2F2F2"/>
<path d="M104.1 161.901C99.5002 161.901 95.7002 156.801 95.7002 150.601C95.7002 144.301 99.5002 139.301 104.1 139.301C108.8 139.301 112.6 144.301 112.6 150.601C112.6 156.801 108.8 161.901 104.1 161.901Z" fill="#E6E6E6"/>
<path d="M366.1 69.9008C361.5 69.9008 357.7 64.8008 357.7 58.6008C357.7 52.3008 361.5 47.3008 366.1 47.3008C370.8 47.3008 374.6 52.3008 374.6 58.6008C374.6 64.8008 370.8 69.9008 366.1 69.9008Z" fill="#E6E6E6"/>
<path d="M181.5 207.602C177.6 210.202 173.7 204.102 177.6 201.602C181.5 199.002 185.4 205.202 181.5 207.602Z" fill="#E6E6E6"/>
<path d="M324.5 6.60159C320.6 9.20159 316.7 3.10159 320.6 0.601594C324.5 -1.99841 328.4 4.20159 324.5 6.60159Z" fill="#E6E6E6"/>
<path d="M408.7 125.798L408.4 127.398L405.9 126.898L405.4 129.398L403.8 128.998L404.3 126.498L401.8 125.998L402.2 124.398L404.7 124.898L405.2 122.398L406.8 122.798L406.3 125.298L408.7 125.798Z" fill="#E6E6E6"/>
<path d="M183.5 43.4C177.6 43.4 172.8 38.7 172.8 32.7C172.8 26.8 177.6 22 183.5 22C189.5 22 194.2 26.8 194.2 32.7C194.2 38.7 189.5 43.4 183.5 43.4Z" fill="#FF6584"/>
<path d="M284.4 47.2986L284.8 62.0986L241.2 63.2986L240.8 48.4986C240.6 40.3986 249.8 19.4986 261.8 19.1986C273.9 18.8986 284.2 39.1986 284.4 47.2986Z" fill="#3F3D56"/>
<path d="M287.8 577.401L268 578.001C267.267 578.001 266.5 577.967 265.7 577.901C264.967 577.834 264.234 577.701 263.5 577.501C262.834 577.301 262.134 577.034 261.4 576.701C260.734 576.367 260.1 576.001 259.5 575.601C257.3 574.001 256.4 571.801 256.8 569.601L260.7 550.001C261.4 546.301 266 543.501 271.5 543.401L282.4 543.101C287.9 542.901 292.6 545.501 293.6 549.101L298.5 568.501C299.1 570.601 298.2 572.801 296.2 574.601C295.6 575.001 294.967 575.401 294.3 575.801C293.634 576.134 292.934 576.434 292.2 576.701C291.534 576.901 290.8 577.067 290 577.201C289.267 577.334 288.534 577.401 287.8 577.401Z" fill="#3F3D56"/>
<path d="M232.2 114.8L296.7 113L308.8 552.9L244.4 554.7L232.2 114.8Z" fill="#E6E6E6"/>
<path d="M270.9 325.9L270.6 310.1L274.7 310L275 325.8L278.8 556.1L274.6 556.3" fill="#3F3D56"/>
<path d="M309.3 153.301L222 155.701C220.5 146.501 222.5 103.601 230.3 94.0008L232.5 82.5008L292.8 80.8008L295.9 92.0008C304.6 99.4008 309.1 142.401 309.3 153.301Z" fill="#E6E6E6"/>
<path d="M294.7 82.1982L232.5 83.8982C230.2 83.9982 228.3 82.7982 228.2 81.1982C228.2 81.1315 228.2 81.0649 228.2 80.9982C228.2 80.9982 228.2 80.9649 228.2 80.8982C228.267 80.8315 228.3 80.7649 228.3 80.6982C228.3 80.6315 228.3 80.5649 228.3 80.4982L238 50.7982C238.4 49.4982 240 48.5982 242 48.4982L283.2 47.3982C285.2 47.2982 286.9 48.1982 287.3 49.3982L298.6 78.5982C299.2 80.0982 297.9 81.5982 295.7 82.0982C295.567 82.0982 295.467 82.0982 295.4 82.0982C295.334 82.0982 295.267 82.0982 295.2 82.0982C295.067 82.1649 294.967 82.1982 294.9 82.1982C294.834 82.1982 294.767 82.1982 294.7 82.1982Z" fill="#E6E6E6"/>
<path d="M238.6 323.901C238.466 323.834 238.333 323.768 238.2 323.701C238.066 323.634 237.933 323.568 237.8 323.501C237.666 323.434 237.533 323.368 237.4 323.301C237.266 323.168 237.133 323.068 237 323.001C236.666 322.734 236.366 322.468 236.1 322.201C235.766 321.868 235.5 321.501 235.3 321.101C235.1 320.768 234.933 320.368 234.8 319.901C234.733 319.501 234.666 319.101 234.6 318.701L232.4 236.801C232.3 233.401 235.6 230.601 239.8 230.501L295.5 228.901C299.7 228.801 303.1 231.501 303.2 234.901L305.5 316.701C305.5 317.168 305.433 317.601 305.3 318.001C305.233 318.401 305.1 318.801 304.9 319.201C304.7 319.601 304.466 319.968 304.2 320.301C303.933 320.634 303.633 320.934 303.3 321.201C302.966 321.468 302.6 321.734 302.2 322.001C301.733 322.201 301.3 322.401 300.9 322.601C300.433 322.734 299.966 322.868 299.5 323.001C299.033 323.068 298.566 323.101 298.1 323.101L242.4 324.601C242.066 324.601 241.733 324.601 241.4 324.601C241.066 324.601 240.766 324.568 240.5 324.501C240.166 324.434 239.833 324.368 239.5 324.301C239.166 324.168 238.866 324.034 238.6 323.901Z" fill="#3F3D56"/>
<path d="M274.3 76.901L255.4 77.401C251.7 77.501 248.6 73.401 248.5 68.201C248.3 63.101 251.2 58.801 254.8 58.701L273.7 58.201C277.4 58.101 280.5 62.201 280.6 67.401C280.8 72.501 277.9 76.801 274.3 76.901Z" fill="#263571"/>
<path d="M726.7 564.898C728.2 566.398 729 568.398 729 570.498C729 572.698 728.2 574.698 726.7 576.198C725.2 577.698 723.1 578.498 721 578.498H661C658.9 578.498 656.9 577.698 655.4 576.198C653.9 574.698 653 572.698 653 570.498C653 568.398 653.9 566.398 655.4 564.898C656.9 563.398 658.9 562.498 661 562.498H683V402.698C664.3 401.398 650.2 395.798 650.2 388.898C650.2 381.198 668.4 374.898 690.7 374.898C713.1 374.898 731.2 381.198 731.2 388.898C731.2 395.698 717.4 401.298 699 402.698V562.498H721C723.1 562.498 725.2 563.398 726.7 564.898Z" fill="#E6E6E6"/>
<path d="M676.8 481.4L669.6 489.2L635.8 465.1L646.5 453.5L676.8 481.4Z" fill="#A0616A"/>
<path d="M658.501 499.5C658.634 498.633 658.867 497.8 659.201 497C659.467 496.133 659.834 495.333 660.3 494.6C660.767 493.867 661.301 493.167 661.901 492.5L662.6 484.6L663.001 484.5L664.901 483.6L674.1 479.2L674.3 479L676.1 477L686.3 486.4L672.501 501.4L663.001 511.8L662.701 511.5C662.034 510.9 661.434 510.233 660.901 509.5C660.434 508.767 660 508 659.6 507.2C659.2 506.4 658.901 505.6 658.701 504.8C658.501 503.933 658.401 503.033 658.401 502.1C658.334 501.233 658.367 500.367 658.501 499.5Z" fill="#2F2E41"/>
<path d="M714.3 559.9L704.1 563L687.2 525.1L702.3 520.5L714.3 559.9Z" fill="#A0616A"/>
<path d="M686.3 573.4C686.5 571.7 687 570 687.8 568.4C688.6 566.9 689.8 565.5 691.1 564.4C692.5 563.3 694.1 562.4 695.7 561.9L700.4 555.5H700.7L713 556.7L713.3 556.6L715.9 555.8L719.9 569L686.9 579.1L686.8 578.6C686.3 577 686.1 575.2 686.3 573.4Z" fill="#2F2E41"/>
<path d="M704.3 370.102L687 461.702C687.2 470.002 708.8 527.802 708.8 527.802L688.1 535.902C688.1 535.902 655.2 465.802 656.4 457.702L658.6 442.202L660 398.702C654.2 398.302 645.9 406.402 638.3 415.802C637 417.302 632.5 417.002 631.3 418.602C629.9 420.468 628.6 422.402 627.4 424.402C626.134 426.402 625 428.468 624 430.602C622.934 432.735 621.967 434.868 621.1 437.002C620.167 439.202 619.367 441.435 618.7 443.702H605.9C564.7 424.202 630 361.102 630 361.102L704.3 370.102Z" fill="#2F2E41"/>
<path d="M625.1 358.902C627.1 355.102 631.6 350.302 635.1 345.802C639 340.802 639.7 334.102 639.7 334.102L638.1 328.402L639.5 324.902L639 299.002V295.802L625.4 254.602L625.3 254.302L654.2 235.802L658.5 229.702C658.767 229.368 659.067 229.068 659.4 228.802C659.733 228.535 660.067 228.302 660.4 228.102C660.8 227.968 661.2 227.835 661.6 227.702C662 227.635 662.4 227.602 662.8 227.602H678.9C679.433 227.602 679.967 227.702 680.5 227.902C680.967 228.035 681.433 228.268 681.9 228.602C682.3 228.868 682.667 229.202 683 229.602C683.333 230.002 683.6 230.468 683.8 231.002L685.1 234.402L709.6 246.502L710 246.702L710.3 247.302L702.8 295.102C702.8 295.102 703.1 298.202 703.5 303.202C704.2 311.002 705.3 323.302 706.1 335.302C706.2 337.102 704 338.702 704.1 340.502C704.2 342.802 706.7 345.302 706.8 347.502C707.4 359.402 707.5 369.302 706.5 371.602C706.2 372.402 705.2 372.902 703.6 373.302C691.2 376.602 643.2 369.702 628.5 366.402C628.233 366.335 628 366.268 627.8 366.202C627.533 366.135 627.3 366.068 627.1 366.002C626.833 365.935 626.6 365.835 626.4 365.702C626.2 365.635 626 365.535 625.8 365.402C625.667 365.335 625.533 365.268 625.4 365.202C625.267 365.068 625.167 364.968 625.1 364.902C624.967 364.768 624.867 364.668 624.8 364.602C624.667 364.468 624.567 364.335 624.5 364.202C623.6 362.802 623.9 361.002 625.1 358.902Z" fill="#263571"/>
<path d="M621.5 429.199L631.2 437.899C633.066 438.699 634.9 439.599 636.7 440.599C638.433 441.666 640.133 442.799 641.8 443.999C643.4 445.266 644.933 446.599 646.4 447.999C647.867 449.466 649.233 450.999 650.5 452.599L656.8 460.599L644.6 473.699L639.5 468.899C638.4 466.799 606.3 444.299 606.3 444.299L602.8 439.899L621.5 429.199Z" fill="#2F2E41"/>
<path d="M718.4 379.101L712.6 322.601L711 299.301L727.4 296.301C727.4 296.301 726.7 313.001 728.9 322.401C731 331.601 729.2 377.901 729 379.101C731.5 381.301 732.3 384.801 731.2 387.901C730 391.001 727 393.001 723.7 393.001C720.4 393.001 717.5 391.001 716.3 387.901C715.1 384.801 716 381.301 718.4 379.101Z" fill="#A0616A"/>
<path d="M709.6 246.5L710 246.7L710.3 247.3L716.2 256.8C718.6 259.4 720.2 263.1 722.9 266.8C731.6 278.5 732.5 307 732.3 322.6C732.2 322.9 732.5 323.2 732.8 323.5C733.534 324.167 734.134 324.933 734.6 325.8C735.067 326.667 735.367 327.6 735.5 328.6C735.634 329.6 735.6 330.567 735.4 331.5C735.2 332.5 734.867 333.433 734.4 334.3L729.8 335.2L714.2 338.5L713.4 338.6L711.5 331.3L709.4 329L705.1 306.6L703.5 303.2L698.9 293.4L709.6 246.5Z" fill="#263571"/>
<path d="M672.1 223.599C660.3 223.599 650.7 213.999 650.7 202.099C650.7 190.299 660.3 180.699 672.1 180.699C684 180.699 693.6 190.299 693.6 202.099C693.6 213.999 684 223.599 672.1 223.599Z" fill="#A0616A"/>
<path d="M688.3 217.101C688.167 217.301 688 217.501 687.8 217.701C687.6 217.834 687.4 217.968 687.2 218.101C686.934 218.234 686.7 218.368 686.5 218.501C686.234 218.568 685.967 218.634 685.7 218.701C685.5 218.701 683.3 217.101 683.9 216.801C684.4 216.501 684.9 216.001 685.2 215.501C685.6 215.001 685.7 214.301 685.8 213.701C685.8 213.101 685.6 212.501 685.3 211.901C685 211.301 684.6 210.901 684 210.501C683.934 210.501 683.834 210.468 683.7 210.401C683.634 210.334 683.567 210.301 683.5 210.301C683.367 210.234 683.267 210.168 683.2 210.101C683.067 210.101 682.967 210.068 682.9 210.001C682.767 210.001 682.667 209.968 682.6 209.901C682.467 209.834 682.367 209.801 682.3 209.801C682.167 209.734 682.067 209.668 682 209.601C681.867 209.534 681.767 209.501 681.7 209.501C681.234 209.168 680.834 208.801 680.5 208.401C680.167 208.001 679.867 207.534 679.6 207.001C679.4 206.534 679.267 206.034 679.2 205.501C679.134 204.968 679.1 204.434 679.1 203.901C679.167 203.434 679.267 202.968 679.4 202.501C679.467 202.034 679.567 201.601 679.7 201.201C679.9 200.734 680.067 200.268 680.2 199.801C680.4 199.401 680.6 198.968 680.8 198.501C678.467 198.434 676.167 198.234 673.9 197.901C671.634 197.634 669.367 197.234 667.1 196.701C664.834 196.234 662.6 195.634 660.4 194.901C658.2 194.168 656.034 193.334 653.9 192.401C653.634 192.334 653.4 192.234 653.2 192.101C652.934 191.968 652.667 191.834 652.4 191.701C652.134 191.568 651.9 191.401 651.7 191.201C651.434 191.068 651.167 190.901 650.9 190.701C650.7 190.501 650.5 190.301 650.3 190.101C649.767 189.701 649.3 189.268 648.9 188.801C648.5 188.268 648.1 187.734 647.7 187.201C647.367 186.668 647.034 186.101 646.7 185.501C646.434 184.968 646.2 184.368 646 183.701C645.934 183.568 645.9 183.401 645.9 183.201C645.9 183.068 645.934 182.901 646 182.701C646.067 182.568 646.134 182.434 646.2 182.301C646.334 182.101 646.467 181.968 646.6 181.901C646.667 181.834 646.767 181.768 646.9 181.701C647.034 181.634 647.134 181.601 647.2 181.601C647.334 181.601 647.467 181.568 647.6 181.501C647.734 181.501 647.834 181.534 647.9 181.601L647.8 180.601C647.734 180.334 647.767 180.068 647.9 179.801C648.034 179.468 648.2 179.201 648.4 179.001C648.667 178.801 648.934 178.701 649.2 178.701C649.534 178.634 649.834 178.668 650.1 178.801L651.2 179.201L651.3 178.401C651.3 178.134 651.367 177.868 651.5 177.601C651.7 177.334 651.934 177.134 652.2 177.001C652.467 176.868 652.734 176.801 653 176.801C653.334 176.801 653.6 176.901 653.8 177.101C653.934 177.168 654.067 177.201 654.2 177.201C654.334 177.268 654.467 177.301 654.6 177.301C654.734 177.368 654.867 177.368 655 177.301C655.134 177.301 655.267 177.301 655.4 177.301C655.534 177.234 655.667 177.168 655.8 177.101C655.867 177.034 655.967 176.968 656.1 176.901C656.167 176.768 656.234 176.668 656.3 176.601C656.434 176.468 656.5 176.334 656.5 176.201L657.3 174.401L657.4 174.301C660 171.401 664.2 169.701 669 169.801C673.2 169.801 677.3 171.001 681.3 172.201C681.7 172.268 682.1 172.368 682.5 172.501C682.967 172.634 683.4 172.801 683.8 173.001C684.134 173.201 684.5 173.401 684.9 173.601C685.3 173.868 685.667 174.134 686 174.401C686.267 174.668 686.534 174.968 686.8 175.301C687 175.634 687.167 176.001 687.3 176.401C687.434 176.801 687.5 177.201 687.5 177.601C687.5 178.001 687.434 178.401 687.3 178.801C691.6 178.301 695.4 181.601 696.9 185.101C698.7 189.201 698.2 193.901 697.6 197.501C696.1 206.001 693 212.601 688.3 217.101Z" fill="#2F2E41"/>
<path d="M791.4 528.798L792.3 507.798C794.767 506.532 797.267 505.398 799.8 504.398C802.333 503.398 804.933 502.565 807.6 501.898C810.267 501.232 812.967 500.732 815.7 500.398C818.433 500.065 821.167 499.898 823.9 499.898C808.7 512.298 810.6 536.098 800.3 552.798C798.7 555.398 796.833 557.765 794.7 559.898C792.5 562.098 790.133 563.998 787.6 565.598C785 567.198 782.267 568.532 779.4 569.598C776.533 570.598 773.567 571.265 770.5 571.598L757.8 579.398C757 574.498 756.6 569.598 756.8 564.698C757 559.798 757.7 554.898 759 550.198C760.2 545.398 761.9 540.798 764.2 536.398C766.4 531.998 769.1 527.898 772.2 524.098C773.067 523.032 774 521.998 775 520.998C775.933 519.998 776.9 519.032 777.9 518.098C778.9 517.165 779.933 516.265 781 515.398C782.067 514.532 783.167 513.698 784.3 512.898C787.3 520.898 791.4 528.798 791.4 528.798Z" fill="#F2F2F2"/>
<path d="M366.5 423.601C365.4 423.601 364.3 423.401 363.2 423.001C362.2 422.601 361.2 422.001 360.4 421.201C359.6 420.501 359 419.601 358.5 418.501C358 417.501 357.8 416.401 357.8 415.301L357.1 391.301C357 389.101 357.9 386.901 359.4 385.201C361 383.601 363.1 382.701 365.4 382.601C367.6 382.501 369.8 383.401 371.4 384.901C373.1 386.501 374 388.601 374.1 390.801L374.8 414.801C374.8 416.001 374.6 417.101 374.2 418.101C373.8 419.101 373.2 420.101 372.4 420.901C371.7 421.701 370.7 422.401 369.7 422.801C368.7 423.301 367.6 423.501 366.5 423.601Z" fill="#3F3D56"/>
<path d="M741.4 511.2C728.467 511.2 714.3 510.733 698.9 509.8C619.3 504.7 516.2 487.2 408.5 460.3C300.9 433.4 201.6 400.5 128.9 367.6C93.5 351.5 66.4 336.3 48.2 322.4C29 307.7 20.5 294.8 23.2 284.3C28.3 263.6 73.9 259.1 111.2 259L111.3 262C60 262.2 29.7 270.3 26.1 285C21.4 303.6 59.4 332.7 130.2 364.8C202.7 397.7 301.8 430.6 409.2 457.4C516.7 484.2 619.6 501.7 699.1 506.8C776.7 511.7 823.8 503.9 828.5 485.2C832.3 469.7 806.9 446.9 756.8 421L758.2 418.3C794.6 437.2 836.8 464.2 831.4 485.9C828.8 496.5 815.3 503.9 791.4 507.9C777.7 510.1 761 511.2 741.4 511.2Z" fill="#CCCCCC"/>
<path d="M56.1003 491.601C45.8003 491.601 39.2003 489.001 36.2003 484.001C30.4003 474.001 40.1003 456.501 65.1003 431.901L67.2003 434.101C44.0003 456.901 33.9003 474.101 38.8003 482.501C41.9003 487.801 51.1003 489.701 65.4003 488.001C79.7003 486.301 98.5003 481.201 121.5 472.901C168.8 455.901 228.1 427.101 288.6 391.901C349 356.701 403.3 319.201 441.5 286.501C448.8 280.201 455.5 274.201 461.3 268.601C463.167 266.734 465.034 264.868 466.9 263.001C468.7 261.134 470.467 259.234 472.2 257.301C474 255.368 475.734 253.368 477.4 251.301C479.067 249.301 480.7 247.268 482.3 245.201C490.8 233.601 493.7 224.601 490.6 219.301C485.4 210.401 463.7 211.201 429.5 221.601L428.6 218.801C465.4 207.601 487.1 207.301 493.2 217.801C497 224.301 494.1 234.101 484.7 247.001C483.1 249.068 481.434 251.134 479.7 253.201C478.034 255.268 476.3 257.301 474.5 259.301C472.7 261.234 470.9 263.168 469.1 265.101C467.234 267.034 465.334 268.901 463.4 270.701C457.5 276.401 450.8 282.501 443.5 288.801C405.1 321.601 350.7 359.201 290.1 394.501C229.5 429.801 170 458.601 122.5 475.701C99.3003 484.101 80.3003 489.201 65.8003 491.001C65.0003 491.068 64.2003 491.134 63.4003 491.201C62.6003 491.268 61.767 491.334 60.9003 491.401C60.1003 491.468 59.3003 491.501 58.5003 491.501C57.7003 491.568 56.9003 491.601 56.1003 491.601Z" fill="#CCCCCC"/>
<path d="M604.4 368.6C604.667 368.8 604.9 369 605.1 369.2C605.233 369.466 605.333 369.766 605.4 370.1C605.4 370.366 605.333 370.633 605.2 370.9C605.7 372.4 605.2 380.8 605.1 382.4L604.7 383.4C604.633 383.533 604.533 383.666 604.4 383.8C604.333 383.933 604.2 384.033 604 384.1C603.867 384.166 603.733 384.233 603.6 384.3C603.4 384.366 603.233 384.4 603.1 384.4C602.3 384.2 538.1 385.4 537.4 385C537.133 384.866 536.9 384.7 536.7 384.5C536.5 384.233 536.367 383.966 536.3 383.7C536.233 383.433 536.267 383.133 536.4 382.8C536.467 382.533 536.6 382.3 536.8 382.1C537.1 382 549.5 366.1 549.8 367.4C556.4 367.1 596.2 368.3 603.6 368.4C603.933 368.4 604.2 368.466 604.4 368.6Z" fill="#E6E6E6"/>
<path opacity="0.2" d="M605.1 382.398C604.7 383.298 604.3 384.398 603.1 384.398L538.1 385.098C537.766 385.098 537.466 385.032 537.2 384.898C536.933 384.765 536.7 384.565 536.5 384.298C536.366 384.032 536.3 383.732 536.3 383.398C536.3 383.065 536.366 382.765 536.5 382.498L605.1 382.398Z" fill="black"/>
<path d="M541.4 381.901C541.266 382.167 541.1 382.434 540.9 382.701C540.7 382.901 540.5 383.101 540.3 383.301C540.033 383.501 539.733 383.667 539.4 383.801C539.133 383.867 538.833 383.934 538.5 384.001C538.3 384.068 538.066 384.068 537.8 384.001C537.533 383.934 537.3 383.834 537.1 383.701C536.833 383.568 536.633 383.401 536.5 383.201C536.366 382.934 536.266 382.667 536.2 382.401L534.1 367.301C533.7 355.501 515.8 279.301 513 265.901C512.7 263.701 516.2 263.101 517.7 263.901L518.7 264.701L530.6 279.301C532 280.001 549.4 366.001 550.1 367.201C550.9 367.501 541.6 381.401 541.4 381.901Z" fill="#E6E6E6"/>
<path opacity="0.2" d="M518.7 264.701L541.4 381.901C540.7 383.801 537.1 385.201 536.3 382.601C536.3 382.601 513 266.001 513 265.901C512.7 263.101 517.4 263.001 518.7 264.701Z" fill="black"/>
<path d="M519.4 269.5L530.9 285.6L543.9 347.1L537.9 352.3L519.4 269.5Z" fill="#263571"/>
<path d="M596.4 375.702C596.4 375.369 596.434 375.002 596.5 374.602C596.567 374.269 596.6 373.935 596.6 373.602C596.667 373.269 596.7 372.902 596.7 372.502C596.9 370.702 597.4 369.002 598.7 369.102C600.7 369.102 600.3 371.802 599.8 374.102C599.734 374.302 599.667 374.535 599.6 374.802C599.6 375.002 599.567 375.202 599.5 375.402C599.434 375.669 599.4 375.902 599.4 376.102C599.4 376.369 599.367 376.602 599.3 376.802L596.2 376.702C596.267 376.369 596.334 376.035 596.4 375.702Z" fill="#2F2E41"/>
<path d="M577.9 372.101C577.9 371.601 577.9 370.901 577.9 370.301C578 369.201 578.4 368.301 579.6 368.301C579.667 368.301 579.734 368.301 579.8 368.301C579.867 368.367 579.934 368.401 580 368.401C580 368.401 580.034 368.401 580.1 368.401C580.167 368.401 580.234 368.434 580.3 368.501C581.6 369.101 581 371.401 581 372.501H580L577.9 372.401C577.9 372.334 577.9 372.234 577.9 372.101Z" fill="#2F2E41"/>
<path d="M571.5 371.801C571.6 370.401 571.3 368.001 573.2 368.101C575.3 368.101 574.7 371.001 574.7 372.301H573.6L571.5 372.201C571.5 372.067 571.5 371.934 571.5 371.801Z" fill="#2F2E41"/>
<path d="M565.1 371.6C565.2 370.2 564.9 367.7 566.9 367.8C569 367.9 568.3 370.7 568.3 372H567.3L565.1 371.9C565.1 371.833 565.1 371.733 565.1 371.6Z" fill="#2F2E41"/>
<path d="M558.8 371.301C558.8 369.901 558.6 367.501 560.5 367.601C562.6 367.601 561.9 370.501 561.9 371.801L560.9 371.701H558.7C558.767 371.567 558.8 371.434 558.8 371.301Z" fill="#2F2E41"/>
<path d="M552.401 371.101C552.401 369.801 552.2 367.701 553.6 367.401C553.667 367.401 553.7 367.367 553.7 367.301C553.767 367.301 553.834 367.301 553.901 367.301C553.901 367.301 553.934 367.301 554 367.301C554.067 367.301 554.1 367.301 554.1 367.301C554.167 367.301 554.234 367.301 554.3 367.301C554.3 367.301 554.334 367.301 554.401 367.301C554.401 367.301 554.434 367.334 554.5 367.401C554.5 367.401 554.534 367.401 554.6 367.401C556.1 367.801 555.5 370.301 555.6 371.501H554.5L552.401 371.401C552.401 371.267 552.401 371.167 552.401 371.101Z" fill="#2F2E41"/>
<path d="M589.8 368.502C589.8 368.502 589.8 368.468 589.8 368.402C589.8 368.402 589.8 368.368 589.8 368.302C589.867 368.302 589.9 368.268 589.9 368.202C589.9 368.135 589.9 368.102 589.9 368.102C590 367.202 590.5 366.602 591.5 366.602C592.5 366.702 592.9 367.302 593 368.202C593 368.335 593 368.502 593 368.702C593 368.902 593 369.102 593 369.302C593 369.502 593 369.702 593 369.902C593 370.102 592.967 370.302 592.9 370.502C592.9 370.635 592.9 370.768 592.9 370.902L589.7 370.702C589.8 370.202 589.7 369.302 589.8 368.502Z" fill="#2F2E41"/>
<path d="M583.5 367.9C583.6 367 584.1 366.3 585.1 366.4C586.2 366.4 586.5 367.1 586.6 368C586.6 368.2 586.6 368.434 586.6 368.7C586.6 368.9 586.6 369.1 586.6 369.3C586.6 369.5 586.6 369.7 586.6 369.9C586.6 370.167 586.567 370.4 586.5 370.6L583.4 370.5C583.4 369.8 583.3 368.8 583.5 367.9Z" fill="#2F2E41"/>
<path d="M577.1 367.802C577.2 366.802 577.6 366.102 578.7 366.102C579.8 366.202 580.2 366.902 580.2 367.902C580.267 367.902 580.3 367.935 580.3 368.002C580.3 368.068 580.3 368.135 580.3 368.202C580.3 368.202 580.3 368.235 580.3 368.302C580.3 368.368 580.3 368.435 580.3 368.502C580.3 369.202 580.2 369.902 580.2 370.302H577.9L577 370.202C577 369.602 577 368.602 577.1 367.802Z" fill="#2F2E41"/>
<path d="M591.5 372.401C593.6 372.401 593 375.301 593 376.601L589.8 376.501C589.9 375.201 589.4 372.301 591.5 372.401Z" fill="#2F2E41"/>
<path d="M585.2 372.1C587.3 372.2 586.6 375 586.6 376.3L583.4 376.2C583.5 374.9 583.1 372 585.2 372.1Z" fill="#2F2E41"/>
<path d="M577.9 372.098C577.967 372.032 578.033 371.998 578.1 371.998C578.167 371.932 578.233 371.898 578.3 371.898C578.367 371.898 578.467 371.898 578.6 371.898C578.667 371.898 578.733 371.898 578.8 371.898C578.933 371.898 579.067 371.898 579.2 371.898C579.267 371.898 579.367 371.932 579.5 371.998C579.633 372.065 579.733 372.132 579.8 372.198C579.867 372.265 579.933 372.365 580 372.498C580.6 373.398 580.2 375.098 580.2 376.098L577 375.998C577.1 374.898 576.9 372.798 577.9 372.098Z" fill="#2F2E41"/>
<path d="M571.5 371.802C571.567 371.802 571.634 371.768 571.7 371.702C571.767 371.702 571.867 371.668 572 371.602C572.067 371.602 572.134 371.602 572.2 371.602C572.267 371.602 572.334 371.602 572.4 371.602C572.534 371.602 572.667 371.602 572.8 371.602C572.934 371.668 573.033 371.735 573.1 371.802C573.233 371.802 573.334 371.868 573.4 372.002C573.534 372.068 573.6 372.168 573.6 372.302C574.2 373.202 573.9 374.902 573.9 375.802L570.7 375.702C570.8 374.602 570.5 372.502 571.5 371.802Z" fill="#2F2E41"/>
<path d="M565.1 371.602C565.166 371.535 565.267 371.502 565.4 371.502C565.467 371.435 565.533 371.402 565.6 371.402C565.666 371.402 565.733 371.402 565.8 371.402C565.866 371.335 565.966 371.335 566.1 371.402C566.166 371.402 566.267 371.402 566.4 371.402C566.533 371.402 566.666 371.435 566.8 371.502C566.866 371.568 566.933 371.635 567 371.702C567.133 371.768 567.233 371.868 567.3 372.002C567.8 372.902 567.5 374.602 567.5 375.602L564.3 375.402C564.4 374.402 564.1 372.302 565.1 371.602Z" fill="#2F2E41"/>
<path d="M558.8 371.302C558.867 371.302 558.934 371.268 559 371.202C559.067 371.202 559.134 371.168 559.2 371.102C559.267 371.102 559.367 371.102 559.5 371.102C559.567 371.102 559.634 371.102 559.7 371.102C559.834 371.102 559.967 371.102 560.1 371.102C560.167 371.168 560.267 371.235 560.4 371.302C560.534 371.302 560.634 371.368 560.7 371.502C560.767 371.568 560.834 371.635 560.9 371.702C561.5 372.702 561.1 374.402 561.1 375.302L557.9 375.202C558 374.102 557.7 372.002 558.8 371.302Z" fill="#2F2E41"/>
<path d="M552.4 371.101C552.466 371.034 552.533 371.001 552.6 371.001C552.666 370.934 552.733 370.901 552.8 370.901C552.933 370.901 553.033 370.867 553.1 370.801C553.166 370.801 553.233 370.834 553.3 370.901C553.433 370.834 553.566 370.834 553.7 370.901C553.833 370.901 553.933 370.934 554 371.001C554.133 371.067 554.233 371.134 554.3 371.201C554.366 371.267 554.433 371.367 554.5 371.501C555.1 372.401 554.7 374.101 554.8 375.101L551.6 374.901C551.7 373.901 551.4 371.801 552.4 371.101Z" fill="#2F2E41"/>
<path d="M586.7 374.702C584.5 377.202 581.1 378.102 578 377.002C574.9 375.902 572.7 373.002 572.7 369.702C572.6 366.402 574.5 363.402 577.6 362.202C577.9 360.902 591.5 316.702 596.6 308.702C601.7 300.502 606.7 284.602 606.7 284.602L621.1 292.802L611.9 314.302L587.6 365.702C589.2 368.602 588.8 372.202 586.7 374.702Z" fill="#A0616A"/>
<path d="M587.4 315.098C587.533 314.165 587.833 313.232 588.3 312.298C588.766 311.432 589.366 310.665 590.1 309.998C590.833 309.332 591.633 308.798 592.5 308.398C592.9 308.198 593.2 308.098 593.3 307.798C598.3 292.998 608.6 266.498 620.7 258.298C624.5 255.698 627.3 252.698 630.4 251.098V250.998L647.9 248.398L634.4 291.298L624.3 301.698L612.8 321.398L610 322.898L605.8 329.198L587.4 318.098C587.266 317.098 587.266 316.098 587.4 315.098Z" fill="#263571"/>
</g>
<defs>
<clipPath id="clip0_226_13933">
<rect width="856" height="582" fill="white"/>
</clipPath>
</defs>
</svg>
