<svg width="500" height="500" viewBox="0 0 500 500" fill="none" xmlns="http://www.w3.org/2000/svg">
<path d="M28.1004 282.642C28.1004 282.642 47.3004 361.002 125.1 402.292C202.9 443.582 296.16 431.802 372.1 424.202C448.04 416.602 496.66 365.152 492 300.552C487.34 235.952 426.24 227.002 380 160.382C333.76 93.7616 331.62 69.6416 256.63 36.4816C181.64 3.32161 84.6304 47.7416 46.7804 132.532C8.93044 217.322 28.1004 282.642 28.1004 282.642Z" fill="#263571"/>
<path opacity="0.7" d="M28.1004 282.642C28.1004 282.642 47.3004 361.002 125.1 402.292C202.9 443.582 296.16 431.802 372.1 424.202C448.04 416.602 496.66 365.152 492 300.552C487.34 235.952 426.24 227.002 380 160.382C333.76 93.7616 331.62 69.6416 256.63 36.4816C181.64 3.32161 84.6304 47.7416 46.7804 132.532C8.93044 217.322 28.1004 282.642 28.1004 282.642Z" fill="white"/>
<path d="M65.6699 66.6719V416.832" stroke="#263238" stroke-opacity="0.88" stroke-miterlimit="10"/>
<path d="M65.6699 53.1719V59.8719" stroke="#263238" stroke-opacity="0.88" stroke-miterlimit="10"/>
<path d="M193.18 53.1719V416.832" stroke="#263238" stroke-opacity="0.88" stroke-miterlimit="10"/>
<path d="M320.689 53.1719V416.832" stroke="#263238" stroke-opacity="0.88" stroke-miterlimit="10"/>
<path d="M448.2 105.023V416.833" stroke="#263238" stroke-opacity="0.88" stroke-miterlimit="10"/>
<path d="M448.2 53.1719V96.2819" stroke="#263238" stroke-opacity="0.88" stroke-miterlimit="10"/>
<path d="M380.81 102.867H88.8203V275.917H380.81V102.867Z" fill="#263238" fill-opacity="0.88"/>
<path d="M379.161 107.789H90.4707V270.999H379.161V107.789Z" fill="white" stroke="#263238" stroke-opacity="0.88" stroke-linecap="round" stroke-linejoin="round"/>
<path d="M382.45 99.9062H85.4902V109.186H382.45V99.9062Z" fill="#263238" fill-opacity="0.88"/>
<path d="M238.09 99.7781C242.702 99.7781 246.44 96.0397 246.44 91.4281C246.44 86.8165 242.702 83.0781 238.09 83.0781C233.479 83.0781 229.74 86.8165 229.74 91.4281C229.74 96.0397 233.479 99.7781 238.09 99.7781Z" fill="white" stroke="#263238" stroke-opacity="0.88" stroke-linecap="round" stroke-linejoin="round"/>
<path d="M242.49 91.4291C242.492 92.2997 242.236 93.1514 241.754 93.8763C241.271 94.6012 240.585 95.1667 239.781 95.5013C238.977 95.8358 238.092 95.9244 237.238 95.7557C236.384 95.5871 235.599 95.1688 234.983 94.5539C234.366 93.9389 233.946 93.1549 233.776 92.3011C233.605 91.4474 233.692 90.5622 234.024 89.7576C234.357 88.953 234.921 88.2652 235.645 87.7813C236.369 87.2974 237.22 87.0391 238.09 87.0391C239.256 87.0391 240.373 87.5013 241.198 88.3243C242.023 89.1473 242.488 90.2638 242.49 91.4291Z" fill="#263571" stroke="#263238" stroke-opacity="0.88" stroke-miterlimit="10"/>
<path d="M142.89 213.782H107.21V177.602H167.89V213.782H149.68" stroke="#263238" stroke-opacity="0.88" stroke-miterlimit="10"/>
<path d="M203.52 231.102H155.09V259.982H203.52V231.102Z" stroke="#263238" stroke-opacity="0.88" stroke-miterlimit="10"/>
<path d="M256.97 177.602H263.08V213.782H202.4V177.602H251.15" stroke="#263238" stroke-opacity="0.88" stroke-miterlimit="10"/>
<path d="M207.45 124.711H278.67V160.901H186.82V124.711H200.66" stroke="#263238" stroke-opacity="0.88" stroke-miterlimit="10"/>
<path d="M357.72 177.602H297.04V213.782H357.72V177.602Z" stroke="#263238" stroke-opacity="0.88" stroke-miterlimit="10"/>
<path d="M181.81 142.531C181.81 142.531 149.61 147.001 130.69 174.281" stroke="#263238" stroke-opacity="0.88" stroke-miterlimit="10"/>
<path d="M161.21 217.684L165.47 230.124" stroke="#263238" stroke-opacity="0.88" stroke-miterlimit="10"/>
<path d="M205.19 216.562L201.29 228.253" stroke="#263238" stroke-opacity="0.88" stroke-miterlimit="10"/>
<path d="M160.79 226.023L165.47 230.122L166.64 224.562" stroke="#263238" stroke-opacity="0.88" stroke-miterlimit="10"/>
<path d="M199.38 224.562L201.13 229.243L206.1 226.312" stroke="#263238" stroke-opacity="0.88" stroke-miterlimit="10"/>
<path d="M131.56 168.73L130.69 174.28L136.82 170.48" stroke="#263238" stroke-opacity="0.88" stroke-miterlimit="10"/>
<path d="M264.86 194.742H295.26" stroke="#263238" stroke-opacity="0.88" stroke-miterlimit="10"/>
<path d="M288.83 190.941L295.56 194.741L289.42 198.541" stroke="#263238" stroke-opacity="0.88" stroke-miterlimit="10"/>
<path d="M168.9 194.742H199.3" stroke="#263238" stroke-opacity="0.88" stroke-miterlimit="10"/>
<path d="M192.87 190.941L199.59 194.741L193.46 198.541" stroke="#263238" stroke-opacity="0.88" stroke-miterlimit="10"/>
<path d="M232.521 163.793V173.043" stroke="#263238" stroke-opacity="0.88" stroke-miterlimit="10"/>
<path d="M236.31 166.602L232.51 173.332L228.72 167.192" stroke="#263238" stroke-opacity="0.88" stroke-miterlimit="10"/>
<path d="M294.97 205.672H265.73" stroke="#263238" stroke-opacity="0.88" stroke-miterlimit="10"/>
<path d="M271.91 201.871L265.45 205.671L271.35 209.471" stroke="#263238" stroke-opacity="0.88" stroke-miterlimit="10"/>
<path d="M205.811 135.992H260.771" stroke="#263238" stroke-opacity="0.88" stroke-miterlimit="10"/>
<path d="M205.811 141.25H260.771" stroke="#263238" stroke-opacity="0.88" stroke-miterlimit="10"/>
<path d="M205.811 146.512H260.771" stroke="#263238" stroke-opacity="0.88" stroke-miterlimit="10"/>
<path d="M112.85 190.941H162.26" stroke="#263238" stroke-opacity="0.88" stroke-miterlimit="10"/>
<path d="M112.85 196.211H162.26" stroke="#263238" stroke-opacity="0.88" stroke-miterlimit="10"/>
<path d="M112.85 201.473H162.26" stroke="#263238" stroke-opacity="0.88" stroke-miterlimit="10"/>
<path d="M208.74 190.941H258.14" stroke="#263238" stroke-opacity="0.88" stroke-miterlimit="10"/>
<path d="M208.74 196.211H258.14" stroke="#263238" stroke-opacity="0.88" stroke-miterlimit="10"/>
<path d="M208.74 201.473H258.14" stroke="#263238" stroke-opacity="0.88" stroke-miterlimit="10"/>
<path d="M301.11 190.941H350.51" stroke="#263238" stroke-opacity="0.88" stroke-miterlimit="10"/>
<path d="M301.11 196.211H350.51" stroke="#263238" stroke-opacity="0.88" stroke-miterlimit="10"/>
<path d="M301.11 201.473H350.51" stroke="#263238" stroke-opacity="0.88" stroke-miterlimit="10"/>
<path d="M161.38 240.934H199.09" stroke="#263238" stroke-opacity="0.88" stroke-miterlimit="10"/>
<path d="M161.38 246.191H199.09" stroke="#263238" stroke-opacity="0.88" stroke-miterlimit="10"/>
<path d="M161.38 251.461H199.09" stroke="#263238" stroke-opacity="0.88" stroke-miterlimit="10"/>
<path d="M328.6 140.582C328.493 140.579 328.39 140.543 328.305 140.477C328.221 140.412 328.159 140.321 328.13 140.218C328.101 140.115 328.106 140.005 328.144 139.905C328.181 139.805 328.25 139.72 328.34 139.662L328.72 139.422L328.58 139.502C328.469 139.55 328.344 139.556 328.229 139.519C328.113 139.482 328.015 139.404 327.953 139.3C327.891 139.196 327.868 139.073 327.89 138.954C327.911 138.835 327.975 138.727 328.07 138.652L330.07 137.382L328.32 138.382C328.208 138.438 328.079 138.45 327.959 138.416C327.838 138.381 327.735 138.303 327.67 138.196C327.604 138.089 327.581 137.961 327.606 137.838C327.63 137.715 327.699 137.606 327.8 137.532L331.38 135.192L327.99 137.192C327.878 137.255 327.746 137.273 327.621 137.241C327.496 137.21 327.388 137.131 327.32 137.022C327.254 136.911 327.233 136.779 327.261 136.652C327.289 136.526 327.364 136.415 327.47 136.342L333.05 132.612L327.61 135.742C327.501 135.806 327.371 135.825 327.248 135.795C327.125 135.765 327.018 135.689 326.95 135.582C326.914 135.529 326.889 135.47 326.876 135.408C326.864 135.346 326.863 135.282 326.875 135.22C326.887 135.157 326.912 135.098 326.947 135.045C326.982 134.992 327.027 134.947 327.08 134.912L335.45 128.912L327.09 133.742C326.978 133.805 326.846 133.823 326.721 133.791C326.596 133.76 326.488 133.681 326.42 133.572C326.351 133.464 326.328 133.334 326.354 133.208C326.38 133.083 326.454 132.973 326.56 132.902L332.56 128.742L326.66 132.152C326.551 132.214 326.423 132.233 326.301 132.206C326.179 132.178 326.071 132.105 326 132.002C325.931 131.894 325.908 131.764 325.934 131.638C325.96 131.513 326.034 131.403 326.14 131.332L329.54 129.042L326.33 130.892C326.218 130.955 326.086 130.973 325.961 130.941C325.836 130.91 325.728 130.831 325.66 130.722C325.592 130.613 325.57 130.482 325.598 130.356C325.626 130.231 325.702 130.122 325.81 130.052L328 128.572L326 129.722C325.891 129.773 325.767 129.783 325.651 129.75C325.535 129.716 325.435 129.642 325.37 129.541C325.304 129.44 325.277 129.319 325.293 129.2C325.31 129.08 325.369 128.971 325.46 128.892L331.31 124.562L325.52 127.902C325.41 127.961 325.283 127.977 325.162 127.946C325.041 127.916 324.936 127.841 324.867 127.737C324.798 127.634 324.771 127.508 324.79 127.385C324.809 127.262 324.873 127.15 324.97 127.072L330.15 123.072L325 126.002C324.889 126.064 324.758 126.082 324.634 126.052C324.51 126.022 324.402 125.947 324.33 125.842C324.26 125.735 324.235 125.606 324.259 125.481C324.284 125.355 324.356 125.245 324.46 125.172L326.99 123.302L324.65 124.662C324.539 124.724 324.408 124.742 324.284 124.712C324.16 124.682 324.052 124.607 323.98 124.502C323.912 124.396 323.886 124.268 323.909 124.143C323.931 124.019 323.999 123.908 324.1 123.832L326.17 122.262L324.3 123.342C324.191 123.406 324.061 123.425 323.938 123.395C323.815 123.365 323.708 123.289 323.64 123.182C323.57 123.078 323.541 122.951 323.559 122.827C323.578 122.703 323.642 122.591 323.74 122.512L324.74 121.702L323.94 122.162C323.841 122.22 323.725 122.243 323.612 122.224C323.499 122.206 323.395 122.149 323.32 122.062C323.25 121.972 323.211 121.861 323.211 121.747C323.211 121.633 323.25 121.522 323.32 121.432L324.9 119.432L323.46 120.262C323.379 120.316 323.283 120.344 323.185 120.344C323.087 120.344 322.992 120.316 322.91 120.262C322.834 120.203 322.775 120.125 322.741 120.034C322.708 119.944 322.7 119.846 322.72 119.752L322.87 119.142C322.785 119.136 322.703 119.111 322.63 119.067C322.557 119.024 322.496 118.964 322.45 118.892C322.388 118.776 322.373 118.64 322.408 118.514C322.444 118.387 322.527 118.279 322.64 118.212L323.36 117.792C323.445 117.745 323.541 117.723 323.638 117.73C323.734 117.737 323.827 117.771 323.904 117.83C323.981 117.888 324.04 117.967 324.073 118.058C324.106 118.149 324.112 118.248 324.09 118.342L323.96 118.852L326.6 117.332C326.701 117.276 326.817 117.257 326.93 117.277C327.043 117.297 327.145 117.356 327.22 117.442C327.295 117.529 327.338 117.639 327.342 117.754C327.345 117.868 327.309 117.981 327.24 118.072L325.67 120.072L330.4 117.342C330.509 117.282 330.637 117.264 330.759 117.292C330.88 117.319 330.988 117.39 331.06 117.492C331.13 117.597 331.157 117.724 331.136 117.848C331.116 117.973 331.049 118.085 330.95 118.162L329.95 118.982L332.45 117.532C332.56 117.473 332.688 117.457 332.809 117.488C332.929 117.518 333.034 117.592 333.103 117.696C333.172 117.8 333.2 117.926 333.181 118.049C333.162 118.172 333.097 118.284 333 118.362L330.93 119.932L334.34 117.932C334.452 117.87 334.582 117.852 334.706 117.882C334.83 117.911 334.939 117.986 335.01 118.092C335.078 118.198 335.104 118.326 335.082 118.45C335.06 118.575 334.991 118.686 334.89 118.762L332.35 120.632L336.16 118.432C336.214 118.396 336.274 118.371 336.338 118.358C336.402 118.345 336.467 118.345 336.531 118.357C336.594 118.37 336.655 118.395 336.709 118.431C336.763 118.467 336.809 118.513 336.845 118.567C336.881 118.621 336.906 118.681 336.919 118.745C336.932 118.808 336.932 118.874 336.92 118.937C336.907 119.001 336.882 119.061 336.846 119.115C336.81 119.169 336.764 119.216 336.71 119.252L331.53 123.252L338.36 119.252C338.472 119.19 338.602 119.172 338.726 119.202C338.85 119.231 338.959 119.306 339.03 119.412C339.098 119.518 339.124 119.646 339.102 119.77C339.079 119.895 339.011 120.006 338.91 120.082L333.05 124.412L340.27 120.252C340.381 120.188 340.512 120.168 340.637 120.198C340.762 120.228 340.87 120.304 340.94 120.412C341.009 120.521 341.034 120.653 341.007 120.78C340.981 120.907 340.907 121.019 340.8 121.092L338.6 122.562L341.44 120.922C341.551 120.869 341.677 120.858 341.795 120.892C341.912 120.926 342.014 121.002 342.079 121.106C342.144 121.21 342.169 121.334 342.149 121.455C342.129 121.576 342.066 121.685 341.97 121.762L338.58 124.052L342.58 121.732C342.691 121.679 342.817 121.668 342.935 121.702C343.052 121.736 343.153 121.812 343.219 121.916C343.284 122.02 343.309 122.144 343.289 122.265C343.269 122.386 343.205 122.495 343.11 122.572L337.11 126.732L343.93 122.792C344.041 122.739 344.167 122.728 344.285 122.762C344.402 122.796 344.503 122.872 344.569 122.976C344.634 123.08 344.659 123.204 344.639 123.325C344.619 123.446 344.555 123.555 344.46 123.632L336.09 129.632L345.41 124.242C345.522 124.178 345.654 124.161 345.779 124.192C345.904 124.224 346.012 124.303 346.08 124.412C346.115 124.465 346.14 124.524 346.152 124.587C346.164 124.65 346.164 124.714 346.151 124.776C346.138 124.839 346.112 124.898 346.076 124.95C346.04 125.003 345.994 125.047 345.94 125.082L340.35 128.832L346.42 125.322C346.532 125.266 346.661 125.254 346.782 125.288C346.902 125.323 347.005 125.401 347.071 125.508C347.136 125.615 347.159 125.742 347.135 125.865C347.111 125.988 347.041 126.098 346.94 126.172L343.36 128.512L347.19 126.302C347.302 126.236 347.435 126.217 347.56 126.249C347.686 126.28 347.794 126.361 347.86 126.472C347.895 126.525 347.919 126.586 347.93 126.648C347.942 126.711 347.94 126.776 347.926 126.838C347.912 126.901 347.886 126.96 347.849 127.012C347.812 127.064 347.765 127.108 347.71 127.142L345.71 128.422L347.78 127.222C347.892 127.156 348.025 127.137 348.15 127.169C348.276 127.2 348.384 127.281 348.45 127.392C348.516 127.503 348.537 127.635 348.509 127.761C348.481 127.888 348.407 127.999 348.3 128.072L347.92 128.312L348.35 128.062C348.461 128.009 348.587 127.998 348.705 128.032C348.822 128.066 348.924 128.142 348.989 128.246C349.054 128.35 349.079 128.474 349.059 128.595C349.039 128.716 348.976 128.825 348.88 128.902L343.12 133.002L349.12 129.532C349.23 129.465 349.363 129.444 349.488 129.474C349.613 129.504 349.722 129.582 349.79 129.692C349.859 129.801 349.884 129.933 349.857 130.06C349.831 130.187 349.757 130.299 349.65 130.372L349.52 130.452C349.631 130.388 349.763 130.37 349.887 130.401C350.011 130.431 350.119 130.508 350.188 130.616C350.258 130.723 350.283 130.854 350.259 130.979C350.235 131.105 350.164 131.217 350.06 131.292L348.94 132.082L350 131.482C350.101 131.417 350.222 131.391 350.341 131.41C350.459 131.428 350.567 131.489 350.643 131.582C350.719 131.674 350.759 131.791 350.755 131.911C350.751 132.031 350.703 132.145 350.62 132.232L348.72 134.422L350.56 133.362C350.649 133.309 350.752 133.287 350.855 133.297C350.958 133.308 351.054 133.352 351.13 133.422C351.209 133.489 351.264 133.579 351.289 133.68C351.314 133.78 351.308 133.885 351.27 133.982L351.07 134.452C351.167 134.441 351.266 134.459 351.353 134.503C351.44 134.548 351.512 134.617 351.56 134.702C351.626 134.816 351.644 134.952 351.61 135.079C351.576 135.206 351.494 135.315 351.38 135.382L350.32 135.992C350.231 136.046 350.127 136.07 350.023 136.06C349.919 136.051 349.821 136.008 349.743 135.939C349.664 135.87 349.61 135.777 349.588 135.675C349.566 135.573 349.578 135.467 349.62 135.372L349.79 134.952L346.64 136.772C346.538 136.826 346.42 136.843 346.307 136.82C346.193 136.797 346.091 136.736 346.018 136.646C345.945 136.557 345.905 136.444 345.906 136.329C345.906 136.213 345.946 136.101 346.02 136.012L347.92 133.822L340.63 138.002C340.52 138.063 340.391 138.081 340.269 138.051C340.146 138.021 340.04 137.947 339.97 137.842C339.934 137.789 339.909 137.73 339.896 137.668C339.884 137.606 339.883 137.542 339.895 137.48C339.907 137.417 339.932 137.358 339.967 137.305C340.002 137.252 340.047 137.207 340.1 137.172L341.22 136.372L337.07 138.762C336.958 138.825 336.826 138.843 336.701 138.811C336.576 138.78 336.468 138.701 336.4 138.592C336.332 138.483 336.31 138.351 336.338 138.226C336.366 138.101 336.442 137.992 336.55 137.922L336.67 137.832L333.9 139.432C333.791 139.496 333.661 139.515 333.538 139.485C333.415 139.455 333.308 139.379 333.24 139.272C333.204 139.219 333.179 139.16 333.166 139.098C333.154 139.036 333.153 138.972 333.165 138.91C333.177 138.847 333.202 138.788 333.237 138.735C333.272 138.682 333.317 138.637 333.37 138.602L339.16 134.532L328.85 140.482C328.779 140.54 328.692 140.575 328.6 140.582Z" fill="#263571"/>
<path d="M313.19 154.581C310.93 152.658 309.11 150.272 307.854 147.583C306.598 144.895 305.935 141.968 305.91 139.001C305.91 127.201 316.14 117.641 328.76 117.641C341.38 117.641 351.62 127.201 351.62 139.001C351.62 150.801 341.39 160.361 328.76 160.361C325.453 160.361 322.182 159.68 319.15 158.361" stroke="#263238" stroke-opacity="0.88" stroke-miterlimit="10"/>
<path d="M285.78 134.391H300.21" stroke="#263238" stroke-opacity="0.88" stroke-miterlimit="10"/>
<path d="M285.78 139.363H300.21" stroke="#263238" stroke-opacity="0.88" stroke-miterlimit="10"/>
<path d="M285.78 144.344H300.21" stroke="#263238" stroke-opacity="0.88" stroke-miterlimit="10"/>
<path d="M111.35 219.242H136.73" stroke="#263238" stroke-opacity="0.88" stroke-miterlimit="10"/>
<path d="M111.35 224.223H136.73" stroke="#263238" stroke-opacity="0.88" stroke-miterlimit="10"/>
<path d="M106.08 154.543H131.46" stroke="#263238" stroke-opacity="0.88" stroke-miterlimit="10"/>
<path d="M111.35 229.191H136.73" stroke="#263238" stroke-opacity="0.88" stroke-miterlimit="10"/>
<path d="M111.35 239.641H136.73" stroke="#263238" stroke-opacity="0.88" stroke-miterlimit="10"/>
<path d="M111.35 244.621H136.73" stroke="#263238" stroke-opacity="0.88" stroke-miterlimit="10"/>
<path d="M111.35 249.602H136.73" stroke="#263238" stroke-opacity="0.88" stroke-miterlimit="10"/>
<path d="M322.68 118.184L328.85 140.514L351.42 135.364" stroke="#263238" stroke-opacity="0.88" stroke-miterlimit="10"/>
<path d="M106.35 123.902V148.762H146.27" stroke="#263238" stroke-opacity="0.88" stroke-miterlimit="10"/>
<path d="M118.78 127.293H110.49V148.763H118.78V127.293Z" fill="#263571" stroke="#263238" stroke-opacity="0.88" stroke-miterlimit="10"/>
<path d="M139.87 132.184H131.58V148.754H139.87V132.184Z" fill="#263571" stroke="#263238" stroke-opacity="0.88" stroke-miterlimit="10"/>
<path d="M129.33 120.512H121.04V148.762H129.33V120.512Z" fill="#263571" stroke="#263238" stroke-opacity="0.88" stroke-miterlimit="10"/>
<path d="M58.29 284.112C58.29 284.112 58.29 279.932 52.44 274.112C46.59 268.292 42.83 264.922 42.83 264.922C42.83 264.922 39.9 274.532 45.34 280.382C49.3338 284.497 53.6656 288.27 58.29 291.662V284.112Z" fill="#263571"/>
<path d="M49.8001 310.21C49.8001 310.21 49.8001 306.03 43.9501 300.21C38.1001 294.39 34.3401 291 34.3401 291C34.3401 291 31.4101 300.61 36.8401 306.46C40.8515 310.576 45.2 314.349 49.8401 317.74L49.8001 310.21Z" fill="#263571"/>
<path d="M57.9199 291.23C57.9199 291.23 58.3699 287.07 64.7999 281.87C71.2299 276.67 75.3299 273.75 75.3299 273.75C75.3299 273.75 77.2299 283.61 71.2099 288.86C66.7973 292.527 62.0878 295.822 57.1299 298.71L57.9199 291.23Z" fill="#263571"/>
<path d="M47.6701 322.053C47.6701 322.053 48.5401 317.973 55.4901 313.473C62.4401 308.973 66.8101 306.473 66.8101 306.473C66.8101 306.473 67.6601 316.473 61.1201 321.063C56.3595 324.247 51.3422 327.03 46.1201 329.383L47.6701 322.053Z" fill="#263571"/>
<path d="M49.5898 355.663C49.5898 355.663 49.5898 351.483 55.4498 345.663C61.3098 339.843 65.0598 336.473 65.0598 336.473C65.0598 336.473 67.9798 346.083 62.5498 351.933C58.5409 356.051 54.1922 359.824 49.5498 363.213L49.5898 355.663Z" fill="#263571"/>
<path d="M49.4996 363.861C49.4996 363.861 50.0896 359.731 45.1296 353.101C40.1696 346.471 36.9196 342.641 36.9196 342.641C36.9196 342.641 32.6596 351.741 37.2096 358.301C40.5795 362.94 44.3326 367.289 48.4296 371.301L49.4996 363.861Z" fill="#263571"/>
<path d="M43.7297 388.18C43.7297 388.18 43.7297 384 49.5797 378.18C55.4297 372.36 59.1897 368.98 59.1897 368.98C59.1897 368.98 62.1197 378.59 56.6797 384.44C52.6717 388.563 48.3229 392.34 43.6797 395.73L43.7297 388.18Z" fill="#263571"/>
<path d="M47.6295 410.223C47.6295 410.223 46.5795 406.173 50.7495 399.033C54.9195 391.893 57.7495 387.703 57.7495 387.703C57.7495 387.703 63.0095 396.263 59.2395 403.303C56.411 408.296 53.1732 413.046 49.5595 417.503L47.6295 410.223Z" fill="#263571"/>
<path d="M58.8194 283C58.5245 287.359 57.9904 291.699 57.2194 296C54.9094 308 49.1194 315.66 46.8094 326.45C44.4994 337.24 51.1394 351.15 49.3594 365.01C47.5794 378.87 42.1894 386.59 43.7294 395.84C45.2694 405.09 53.3694 430.14 53.3694 430.14" stroke="#263238" stroke-opacity="0.88" stroke-linecap="round" stroke-linejoin="round"/>
<path d="M57.8701 294.012L64.1701 289.172" stroke="#263238" stroke-opacity="0.88" stroke-linecap="round" stroke-linejoin="round"/>
<path d="M58.1595 288.432L55.5195 283.742" stroke="#263238" stroke-opacity="0.88" stroke-linecap="round" stroke-linejoin="round"/>
<path d="M47.1602 326.004C47.1602 326.004 52.4402 322.004 57.8702 318.094" stroke="#263238" stroke-opacity="0.88" stroke-linecap="round" stroke-linejoin="round"/>
<path d="M49.7999 317.731C49.7999 317.731 45.3999 309.111 40.4199 303.391" stroke="#263238" stroke-opacity="0.88" stroke-linecap="round" stroke-linejoin="round"/>
<path d="M49.7998 361.61C52.8141 356.055 56.6169 350.965 61.0898 346.5" stroke="#263238" stroke-opacity="0.88" stroke-linecap="round" stroke-linejoin="round"/>
<path d="M48.78 367.472C47.1766 363.704 45.2634 360.075 43.06 356.622C39.98 352.082 39.54 351.492 39.54 351.492" stroke="#263238" stroke-opacity="0.88" stroke-linecap="round" stroke-linejoin="round"/>
<path d="M43.7295 395.864C45.065 392.54 46.653 389.324 48.4795 386.244C50.3073 383.392 52.3677 380.696 54.6395 378.184" stroke="#263238" stroke-opacity="0.88" stroke-linecap="round" stroke-linejoin="round"/>
<path d="M49.5401 417.502C49.2335 414.33 49.7789 411.133 51.1201 408.242C53.3201 403.992 55.8101 398.412 56.8401 396.242" stroke="#263238" stroke-opacity="0.88" stroke-linecap="round" stroke-linejoin="round"/>
<path d="M19.9994 339.941C19.9994 339.941 19.5394 337.321 22.5794 333.021C25.6194 328.721 27.5794 326.211 27.5794 326.211C27.5794 326.211 30.4594 331.921 27.6794 336.211C25.6217 339.226 23.3135 342.063 20.7794 344.691L19.9994 339.941Z" fill="#263571"/>
<path d="M28.1401 355.39C28.1401 355.39 27.6801 352.77 30.7201 348.46C33.7601 344.15 35.7201 341.66 35.7201 341.66C35.7201 341.66 38.5901 347.37 35.8201 351.66C33.7609 354.678 31.4528 357.518 28.9201 360.15L28.1401 355.39Z" fill="#263571"/>
<path d="M20.9998 344.37C20.9998 344.37 20.2698 341.81 15.6698 339.25C11.0698 336.69 8.18978 335.25 8.18978 335.25C8.18978 335.25 8.06978 341.65 12.4198 344.25C15.5696 346.109 18.8714 347.699 22.2898 349L20.9998 344.37Z" fill="#263571"/>
<path d="M30.7596 362.58C30.7596 362.58 29.7596 360.12 24.9196 358.05C20.0796 355.98 17.0596 354.91 17.0596 354.91C17.0596 354.91 17.6196 361.28 22.2196 363.44C25.5591 364.909 29.0141 366.1 32.5496 367L30.7596 362.58Z" fill="#263571"/>
<path d="M33.2001 383.872C33.2001 383.872 32.7501 381.252 28.4401 378.212C24.1301 375.172 21.4401 373.492 21.4401 373.492C21.4401 373.492 20.6401 379.842 24.6901 382.922C27.6298 385.069 30.744 386.965 34.0001 388.592L33.2001 383.872Z" fill="#263571"/>
<path d="M34.1495 389.002C34.1495 389.002 33.3295 386.472 35.7195 381.782C38.1095 377.092 39.7195 374.332 39.7195 374.332C39.7195 374.332 43.3795 379.572 41.2395 384.182C39.6348 387.459 37.7547 390.593 35.6195 393.552L34.1495 389.002Z" fill="#263571"/>
<path d="M41.49 410.143C41.49 410.143 41.8 407.503 45.92 404.223C50.04 400.943 52.67 399.113 52.67 399.113C52.67 399.113 53.82 405.403 49.96 408.703C47.1386 411.018 44.128 413.092 40.96 414.903L41.49 410.143Z" fill="#263571"/>
<path d="M40.4101 403.623C40.4101 403.623 40.0001 401.003 35.6501 398.003C31.3001 395.003 28.6501 393.273 28.6501 393.273C28.6501 393.273 27.8601 399.623 31.9101 402.703C34.8598 404.851 37.9841 406.747 41.2501 408.373L40.4101 403.623Z" fill="#263571"/>
<path d="M40.3494 417.874C40.3494 417.874 40.5794 415.224 37.1794 411.194C33.7794 407.164 31.5794 404.844 31.5794 404.844C31.5794 404.844 29.2094 410.784 32.3394 414.784C34.6668 417.615 37.2293 420.244 39.9994 422.644L40.3494 417.874Z" fill="#263571"/>
<path d="M19.5293 339.332C20.1866 342.041 20.9912 344.711 21.9393 347.332C24.6893 354.582 29.1493 358.782 31.7793 365.332C34.4093 371.882 31.7793 381.332 34.3593 389.792C36.9393 398.252 41.1993 402.542 41.2393 408.512C41.2793 414.482 38.9193 431.002 38.9193 431.002" stroke="#263238" stroke-opacity="0.88" stroke-linecap="round" stroke-linejoin="round"/>
<path d="M21.3198 346.1L16.8398 343.75" stroke="#263238" stroke-opacity="0.88" stroke-linecap="round" stroke-linejoin="round"/>
<path d="M20.5293 342.64L21.6793 339.41" stroke="#263238" stroke-opacity="0.88" stroke-linecap="round" stroke-linejoin="round"/>
<path d="M31.4997 365.001C31.4997 365.001 27.7597 363.091 23.9297 361.191" stroke="#263238" stroke-opacity="0.88" stroke-linecap="round" stroke-linejoin="round"/>
<path d="M29 360.113C30.0983 356.641 31.5492 353.29 33.33 350.113" stroke="#263238" stroke-opacity="0.88" stroke-linecap="round" stroke-linejoin="round"/>
<path d="M33.72 387.621C31.2243 384.467 28.2875 381.688 25 379.371" stroke="#263238" stroke-opacity="0.88" stroke-linecap="round" stroke-linejoin="round"/>
<path d="M35 391.19C35.5936 388.651 36.3963 386.166 37.4 383.76C38.84 380.58 39.05 380.16 39.05 380.16" stroke="#263238" stroke-opacity="0.88" stroke-linecap="round" stroke-linejoin="round"/>
<path d="M41 413.002C42.4576 411.198 44.0705 409.525 45.82 408.002C46.9535 407.17 48.017 406.247 49 405.242" stroke="#263238" stroke-opacity="0.88" stroke-linecap="round" stroke-linejoin="round"/>
<path d="M41.24 408.441C40.0483 406.503 38.7112 404.657 37.24 402.921C35.7827 401.331 34.1974 399.862 32.5 398.531" stroke="#263238" stroke-opacity="0.88" stroke-linecap="round" stroke-linejoin="round"/>
<path d="M39.9994 422.642C39.8445 420.618 39.1542 418.672 37.9994 417.002C36.1594 414.582 33.9994 411.352 33.1094 410.082" stroke="#263238" stroke-opacity="0.88" stroke-linecap="round" stroke-linejoin="round"/>
<path d="M471.139 163.244C475.672 143.732 463.53 124.24 444.018 119.707C424.506 115.173 405.014 127.316 400.481 146.827C395.947 166.339 408.09 185.831 427.601 190.365C447.113 194.898 466.605 182.756 471.139 163.244Z" fill="#263238" fill-opacity="0.88" stroke="#263238" stroke-opacity="0.88" stroke-miterlimit="10"/>
<path d="M447.792 183.409C463.461 176.774 470.785 158.693 464.15 143.024C457.515 127.355 439.434 120.031 423.765 126.666C408.096 133.301 400.772 151.382 407.407 167.051C414.042 182.72 432.123 190.043 447.792 183.409Z" fill="white" stroke="#263238" stroke-opacity="0.88" stroke-miterlimit="10"/>
<path d="M445.299 135.262L435.779 155.012H449.379" stroke="#263238" stroke-opacity="0.88" stroke-miterlimit="10"/>
<path d="M439.239 155.001C439.241 155.686 439.04 156.355 438.661 156.926C438.282 157.496 437.742 157.941 437.11 158.205C436.478 158.468 435.782 158.538 435.11 158.406C434.439 158.273 433.821 157.944 433.336 157.461C432.851 156.977 432.521 156.361 432.387 155.689C432.252 155.018 432.32 154.322 432.582 153.689C432.843 153.056 433.287 152.515 433.856 152.135C434.425 151.754 435.095 151.551 435.779 151.551C436.233 151.549 436.683 151.638 437.103 151.811C437.522 151.983 437.904 152.237 438.225 152.558C438.547 152.878 438.802 153.259 438.976 153.678C439.15 154.097 439.239 154.547 439.239 155.001Z" fill="#263571" stroke="#263238" stroke-opacity="0.88" stroke-miterlimit="10"/>
<path d="M239.66 248.721L235 241.941C235 241.941 235.92 231.041 234.88 229.341C233.84 227.641 217 225.671 216 226.931C215 228.191 218.54 229.331 218.54 229.331C218.54 229.331 216.14 230.391 216.39 231.601C216.76 233.381 219.83 233.601 219.83 233.601C219.83 233.601 217.39 235.231 217.69 236.291C217.93 237.131 220.37 237.791 220.37 237.791C220.37 237.791 217.9 238.911 219.92 240.341C221.94 241.771 223.65 243.251 223.65 243.251C223.65 243.251 222.25 246.251 226.04 248.861C229.83 251.471 236.38 256.221 236.38 256.221L239.66 248.721Z" fill="white" stroke="#263238" stroke-opacity="0.88" stroke-linecap="round" stroke-linejoin="round"/>
<path d="M216.63 222.392L212.9 222.082V223.232L215.9 224.922C216.071 224.059 216.315 223.213 216.63 222.392Z" fill="#263238" fill-opacity="0.88" stroke="#263238" stroke-opacity="0.88" stroke-linecap="round" stroke-linejoin="round"/>
<path d="M231.291 229.939C231.124 229.945 230.959 229.921 230.801 229.869L216.001 225.199C215.808 225.147 215.627 225.057 215.47 224.933C215.313 224.81 215.182 224.656 215.086 224.481C214.99 224.306 214.93 224.113 214.91 223.914C214.891 223.715 214.912 223.514 214.972 223.324C215.032 223.133 215.13 222.957 215.26 222.805C215.391 222.653 215.55 222.53 215.729 222.441C215.909 222.353 216.104 222.302 216.304 222.291C216.503 222.28 216.703 222.31 216.891 222.379L231.691 227.049C232.024 227.154 232.308 227.374 232.495 227.669C232.681 227.965 232.757 228.316 232.709 228.662C232.661 229.008 232.493 229.326 232.233 229.56C231.974 229.793 231.64 229.928 231.291 229.939Z" fill="white" stroke="#263238" stroke-opacity="0.88" stroke-linecap="round" stroke-linejoin="round"/>
<path d="M239 232.85C238.776 232.851 238.554 232.818 238.34 232.75L230.7 230.34C230.412 230.3 230.136 230.197 229.892 230.04C229.647 229.882 229.44 229.673 229.285 229.426C229.13 229.18 229.03 228.903 228.993 228.615C228.956 228.326 228.982 228.033 229.07 227.756C229.158 227.479 229.305 227.224 229.501 227.009C229.698 226.794 229.938 226.625 230.207 226.513C230.475 226.401 230.765 226.349 231.056 226.361C231.347 226.372 231.631 226.447 231.89 226.58L239.53 228.99C240.024 229.153 240.435 229.502 240.676 229.964C240.917 230.425 240.969 230.962 240.82 231.46C240.695 231.85 240.454 232.193 240.129 232.441C239.803 232.69 239.409 232.833 239 232.85Z" fill="#263238" fill-opacity="0.88" stroke="#263238" stroke-opacity="0.88" stroke-linecap="round" stroke-linejoin="round"/>
<path d="M232.84 235.08C232.152 233.083 231.35 231.126 230.44 229.22C229.39 227.28 227.37 225.61 226.57 223.66C225.77 221.71 223.63 224.73 224.42 226.19C225.21 227.65 227 229.82 227.03 230.81C227.06 231.8 227.32 232.53 226.18 235.81C225.04 239.09 224.41 242.81 226.96 245.43" fill="white"/>
<path d="M232.84 235.08C232.152 233.083 231.35 231.126 230.44 229.22C229.39 227.28 227.37 225.61 226.57 223.66C225.77 221.71 223.63 224.73 224.42 226.19C225.21 227.65 227 229.82 227.03 230.81C227.06 231.8 227.32 232.53 226.18 235.81C225.04 239.09 224.41 242.81 226.96 245.43" stroke="#263238" stroke-opacity="0.88" stroke-linecap="round" stroke-linejoin="round"/>
<path d="M218.58 229.332L227.03 230.812" stroke="#263238" stroke-opacity="0.88" stroke-linecap="round" stroke-linejoin="round"/>
<path d="M219.87 233.608C220.87 233.328 226.18 235.768 226.18 235.768" stroke="#263238" stroke-opacity="0.88" stroke-linecap="round" stroke-linejoin="round"/>
<path d="M220.41 237.801L224.8 239.271" stroke="#263238" stroke-opacity="0.88" stroke-linecap="round" stroke-linejoin="round"/>
<path d="M298.831 235.69C298.831 235.69 296.311 234.2 295.201 238.19C294.091 242.18 290.831 249.19 289.391 250.71C287.951 252.23 273.791 266.25 273.791 266.25C273.791 266.25 267.711 261.48 266.281 263.25C265.679 264.128 264.844 264.82 263.871 265.25L239.591 246.2L230.591 259.81C230.591 259.81 263.591 289.97 266.351 290.88C269.111 291.79 271.061 291.48 272.041 290.96C273.021 290.44 291.141 276.8 291.141 276.8C291.141 276.8 302.191 241.14 303.141 239.88C304.091 238.62 298.831 235.69 298.831 235.69Z" fill="#263571" stroke="#263238" stroke-opacity="0.88" stroke-linecap="round" stroke-linejoin="round"/>
<path d="M266.221 266.332C266.221 266.332 271.141 272.012 271.141 279.202Z" fill="#263571"/>
<path d="M266.221 266.332C266.221 266.332 271.141 272.012 271.141 279.202" stroke="#263238" stroke-opacity="0.88" stroke-linecap="round" stroke-linejoin="round"/>
<path d="M274.17 268.602C274.17 268.602 275.68 272.392 273.41 280.712Z" fill="#263571"/>
<path d="M274.17 268.602C274.17 268.602 275.68 272.392 273.41 280.712" stroke="#263238" stroke-opacity="0.88" stroke-linecap="round" stroke-linejoin="round"/>
<path d="M309.65 191.68C309.65 191.68 298.93 184.68 300.2 178.03C301.47 171.38 325.51 166.03 339.33 170.52C353.15 175.01 355.96 195.69 354.14 208.45C352.32 221.21 351.22 250.33 351.22 250.33L304.33 251.71C304.33 251.71 308.7 217.61 309.61 206.83C310.52 196.05 309.65 191.68 309.65 191.68Z" fill="#263238" fill-opacity="0.88" stroke="#263238" stroke-opacity="0.88" stroke-linecap="round" stroke-linejoin="round"/>
<path d="M285.65 379.431C286.65 389.621 288.55 434.521 289.65 441.171H338.4C338.3 433.511 338.17 381.771 339.27 377.541C340.66 372.251 342.61 354.611 340.46 344.491C338.31 334.371 335.7 329.491 335.7 329.491L285.1 329.441L285.25 333.591C285.25 333.591 284.3 365.001 285.65 379.431Z" fill="#263238" fill-opacity="0.88" stroke="#263238" stroke-opacity="0.88" stroke-linecap="round" stroke-linejoin="round"/>
<path d="M296.471 348.871C298.471 350.241 300.471 351.221 300.471 353.201C301.471 370.981 305.411 420.921 306.801 438.911" stroke="#4C4C4C" stroke-linecap="round" stroke-linejoin="round"/>
<path d="M311 235L335.74 235.92C335.74 235.92 315.88 266.49 316.05 283.29C316.22 300.09 319.55 334.91 319.55 334.91C319.55 334.91 308.67 343.52 297.42 341.91C296.2 341.73 295.55 331.65 295.55 331.65C295.55 331.65 294.83 341.44 294 341.29C287.7 340.16 285.25 333.65 285.25 333.65L286.56 300C286.56 300 286.56 277.93 289.02 271.59C291.48 265.25 308.1 237.09 308.1 237.09L311 235Z" fill="white" stroke="#263238" stroke-opacity="0.88" stroke-linecap="round" stroke-linejoin="round"/>
<path d="M310.001 254.48C310.001 254.48 302.351 270.38 299.551 279.7C296.751 289.02 295.551 331.61 295.551 331.61" stroke="#263238" stroke-opacity="0.88" stroke-linecap="round" stroke-linejoin="round"/>
<path d="M332.761 235.68C332.761 235.68 315.411 261.56 312.061 270.88C308.711 280.2 306.471 315.88 306.911 331C307.351 346.12 312.131 362.8 312.131 362.8C326.198 365.045 340.592 364.057 354.221 359.91C354.221 359.91 348.161 333.08 345.221 324.27C343.385 318.496 342 312.588 341.081 306.6C341.081 306.6 361.001 243.08 361.001 242.1C361.001 241.12 360.611 240.1 358.621 239.53C356.631 238.96 332.761 235.68 332.761 235.68Z" fill="#263571" stroke="#263238" stroke-opacity="0.88" stroke-linecap="round" stroke-linejoin="round"/>
<path d="M316.86 334.681L342.61 332.621L342.95 336.741L331.97 338.111" fill="#263571"/>
<path d="M316.86 334.681L342.61 332.621L342.95 336.741L331.97 338.111" stroke="#263238" stroke-opacity="0.88" stroke-linecap="round" stroke-linejoin="round"/>
<path d="M310.77 238.299C310.77 238.299 290.1 274.829 289.64 281.429C289.18 288.029 286.12 318.429 284.42 328.039C282.72 337.649 275.37 356.309 275.37 356.309C275.37 356.309 273.48 348.129 274.03 344.489C274.58 340.849 282.54 320.189 283.39 315.549C284.24 310.909 285.39 294.399 285.19 287.159C284.99 279.919 284.49 274.659 285.99 269.349C287.49 264.039 298.83 235.689 298.83 235.689L315.28 234.879L310.77 238.299Z" fill="#263571" stroke="#263238" stroke-opacity="0.88" stroke-linecap="round" stroke-linejoin="round"/>
<path d="M306.291 235.281L302.851 251.031L311.691 244.171L306.291 235.281Z" fill="white" stroke="#263238" stroke-opacity="0.88" stroke-linecap="round" stroke-linejoin="round"/>
<path d="M316.82 227.641L306.29 235.281L310.26 245.671L310.04 254.481L321.98 236.771L316.82 227.641Z" fill="white" stroke="#263238" stroke-opacity="0.88" stroke-linecap="round" stroke-linejoin="round"/>
<path d="M316.21 223.502C316.21 223.502 314.21 238.232 313.58 242.152C312.95 246.072 310 254.482 310 254.482C310 254.482 328.77 236.332 329.7 234.832C330.63 233.332 333.87 218.832 333.87 218.832C333.87 218.832 321.83 223.342 316.21 223.502Z" fill="white" stroke="#263238" stroke-opacity="0.88" stroke-linecap="round" stroke-linejoin="round"/>
<path d="M315.641 227.632C318.201 229.232 320.191 229.232 323.151 228.772C326.111 228.312 330.151 225.532 332.871 223.342C333.471 220.792 333.871 218.832 333.871 218.832C333.871 218.832 321.791 223.342 316.171 223.502C316.211 223.502 316.001 225.222 315.641 227.632Z" fill="#263238" fill-opacity="0.88" stroke="#263238" stroke-opacity="0.88" stroke-linecap="round" stroke-linejoin="round"/>
<path d="M322.22 178.852L308.37 189.762C308.37 189.762 306.97 200.312 306.45 207.662C306.174 210.685 306.625 213.731 307.764 216.545C308.903 219.36 310.698 221.861 313 223.842C317 227.392 319.22 227.572 323.11 226.962C327 226.352 332.74 221.792 334.88 219.772C337.02 217.752 341 211.772 341 211.772C341 211.772 344.19 212.412 345.13 210.922C345.599 210.222 345.985 209.47 346.28 208.682C346.28 208.682 333.11 201.252 327.7 191.882C322.29 182.512 322.22 178.852 322.22 178.852Z" fill="white" stroke="#263238" stroke-opacity="0.88" stroke-linecap="round" stroke-linejoin="round"/>
<path d="M317.91 198.281C317.708 199.824 317.256 201.324 316.57 202.721C315.64 204.211 312 205.051 314 206.721C315.521 207.771 317.333 208.317 319.18 208.281" stroke="#263238" stroke-opacity="0.88" stroke-linecap="round" stroke-linejoin="round"/>
<path d="M313.891 211.112C313.891 211.112 321.311 214.312 326.081 210.012" stroke="#263238" stroke-opacity="0.88" stroke-linecap="round" stroke-linejoin="round"/>
<path d="M316.37 212.26C316.37 212.26 317.47 216.38 319.89 215.57C322.31 214.76 324.41 211.57 324.41 211.57C321.749 211.983 319.063 212.213 316.37 212.26Z" stroke="#263238" stroke-opacity="0.88" stroke-linecap="round" stroke-linejoin="round"/>
<path d="M327.25 200.201C327.25 201.281 326.82 202.201 326.25 202.201C325.68 202.201 325.13 201.361 325.1 200.281C325.07 199.201 325.53 198.281 326.1 198.281C326.67 198.281 327.22 199.131 327.25 200.201Z" fill="#263238" fill-opacity="0.88"/>
<path d="M315.601 198.842C315.601 199.922 315.171 200.842 314.601 200.842C314.031 200.842 313.481 200.002 313.451 198.922C313.421 197.842 313.881 196.922 314.451 196.922C315.021 196.922 315.571 197.762 315.601 198.842Z" fill="#263238" fill-opacity="0.88"/>
<path d="M311.681 194.31C312.046 193.928 312.486 193.625 312.973 193.42C313.46 193.216 313.985 193.114 314.513 193.121C315.042 193.129 315.563 193.246 316.044 193.464C316.526 193.682 316.957 193.997 317.311 194.39" stroke="#263238" stroke-opacity="0.88" stroke-linecap="round" stroke-linejoin="round"/>
<path d="M322.94 195C322.94 195 328.5 192.89 330.84 197.7" stroke="#263238" stroke-opacity="0.88" stroke-linecap="round" stroke-linejoin="round"/>
<path d="M319.86 239.531L310.04 254.481L324.47 246.721L319.86 239.531Z" fill="white" stroke="#263238" stroke-opacity="0.88" stroke-linecap="round" stroke-linejoin="round"/>
<path d="M336.34 226.57L319.86 239.53L324.66 253.07L340.49 234.76L336.34 226.57Z" fill="white" stroke="#263238" stroke-opacity="0.88" stroke-linecap="round" stroke-linejoin="round"/>
<path d="M316.31 303.38C314.085 302.76 311.96 301.824 310 300.6C306.31 298.4 302.38 299.17 299.09 299.27C295.8 299.37 293.51 300.1 293.88 301.4C294.25 302.7 297.54 302.61 298.53 302.58C299.52 302.55 301.21 304.15 301.21 304.15L292.98 306.15C292.98 306.15 290.4 307.88 292.43 309.79C294.46 311.7 294.83 311.27 294.83 311.27C294.83 311.27 297.94 316.12 301.24 316.35C304.54 316.58 317.95 313.22 317.95 313.22L316.31 303.38Z" fill="white" stroke="#263238" stroke-opacity="0.88" stroke-linecap="round" stroke-linejoin="round"/>
<path d="M339.63 265.581C340.02 267.581 342.15 297.011 342.15 297.011L315 303.411L316.45 318.861C316.45 318.861 365.04 313.141 365.94 310.151C366.84 307.161 363.67 255.521 363.94 252.551C364.21 249.581 368.17 239.551 356.31 239.551" fill="#263571"/>
<path d="M339.63 265.581C340.02 267.581 342.15 297.011 342.15 297.011L315 303.411L316.45 318.861C316.45 318.861 365.04 313.141 365.94 310.151C366.84 307.161 363.67 255.521 363.94 252.551C364.21 249.581 368.17 239.551 356.31 239.551" stroke="#263238" stroke-opacity="0.88" stroke-linecap="round" stroke-linejoin="round"/>
<path d="M344.17 260.659C344.17 260.659 352.11 250.439 360.82 250.819Z" fill="#263571"/>
<path d="M344.17 260.659C344.17 260.659 352.11 250.439 360.82 250.819" stroke="#263238" stroke-opacity="0.88" stroke-linecap="round" stroke-linejoin="round"/>
<path d="M344.17 264.44C344.17 264.44 350.98 260.66 357.79 260.66Z" fill="#263571"/>
<path d="M344.17 264.44C344.17 264.44 350.98 260.66 357.79 260.66" stroke="#263238" stroke-opacity="0.88" stroke-linecap="round" stroke-linejoin="round"/>
<path d="M40.6601 441.17V383.31C40.6601 382.854 40.4789 382.416 40.1563 382.094C39.8338 381.771 39.3963 381.59 38.9401 381.59H31.8501C31.393 381.59 30.9545 381.771 30.6303 382.093C30.3062 382.415 30.1228 382.853 30.1201 383.31V441.17H40.6601Z" fill="#4C4C4C" stroke="#263238" stroke-opacity="0.88" stroke-linecap="round" stroke-linejoin="round"/>
<path d="M31.8293 441.17V383.31C31.8267 382.853 31.6432 382.415 31.3191 382.093C30.9949 381.771 30.5564 381.59 30.0993 381.59H22.9993C22.5431 381.59 22.1056 381.771 21.7831 382.094C21.4605 382.416 21.2793 382.854 21.2793 383.31V441.17H31.8293Z" fill="#263238" fill-opacity="0.88" stroke="#263238" stroke-opacity="0.88" stroke-linecap="round" stroke-linejoin="round"/>
<path d="M35.8197 441.168H162.39C161.505 438.932 160.008 436.991 158.07 435.568C152.33 431.948 97.6597 423.488 97.6597 423.488L40.8697 422.578L38.1497 423.488C38.1497 423.488 35.1497 427.718 35.4397 429.828C35.5897 430.898 35.6597 436.078 35.8197 441.168Z" fill="#263238" fill-opacity="0.88" stroke="#263238" stroke-opacity="0.88" stroke-linecap="round" stroke-linejoin="round"/>
<path d="M87.3899 313.837C87.3899 313.837 74.0999 321.387 69.5699 325.617C65.0399 329.847 57.4899 343.747 56.8799 352.197C56.2699 360.647 49.6299 392.997 49.6299 392.997C49.6299 392.997 35.9999 419.557 38.1499 423.487C40.2999 427.417 96.1499 423.487 97.6599 423.487C99.1699 423.487 96.1499 406.877 96.1499 406.877C96.1499 406.877 117.29 374.247 118.15 365.487C119.01 356.727 112.71 332.867 111.5 327.427C110.29 321.987 90.1099 312.627 87.3899 313.837Z" fill="white" stroke="#263238" stroke-opacity="0.88" stroke-linecap="round" stroke-linejoin="round"/>
<path d="M77 360C77 360 87.57 370 92 373.35" stroke="#263238" stroke-opacity="0.88" stroke-linecap="round" stroke-linejoin="round"/>
<path d="M72 367.77C72 367.77 91.47 374.44 96.47 375" stroke="#263238" stroke-opacity="0.88" stroke-linecap="round" stroke-linejoin="round"/>
<path d="M128.77 279.999C128.77 279.999 130.28 291.179 129.98 294.499C129.68 297.819 126.66 309.299 125.75 311.719C124.84 314.139 123.94 316.849 120.62 316.549C118.686 316.398 116.819 315.776 115.18 314.739L111.86 325.909L88.8601 312.619L91.8601 306.619C91.8601 306.619 88.5401 301.189 87.6301 292.119C86.7201 283.049 91.8601 272.789 98.5101 268.869C105.16 264.949 116.63 266.449 119.95 269.169C123.27 271.889 128.77 279.999 128.77 279.999Z" fill="white" stroke="#263238" stroke-opacity="0.88" stroke-linecap="round" stroke-linejoin="round"/>
<path d="M87.6901 308.098C88.9001 308.408 114.88 320.188 115.18 323.208C115.48 326.228 116.69 335.588 116.69 335.588C111.36 331.006 105.592 326.96 99.4701 323.508C94.6214 320.95 89.9776 318.021 85.5801 314.748L87.6901 308.098Z" fill="white" stroke="#263238" stroke-opacity="0.88" stroke-linecap="round" stroke-linejoin="round"/>
<path d="M110.649 255.239C110.649 255.239 118.499 251.919 124.839 253.429C131.179 254.939 133.599 262.189 133.599 268.229C133.599 274.269 130.279 281.519 129.069 281.819C127.859 282.119 124.839 267.629 119.069 263.399C115.87 261.115 113.032 258.365 110.649 255.239Z" fill="#263571" stroke="#263238" stroke-opacity="0.88" stroke-linecap="round" stroke-linejoin="round"/>
<path d="M101 257.06C101 257.06 113.39 250.41 124.26 259.77C135.13 269.13 131.51 278.5 129.09 281.82C126.67 285.14 126.68 291.49 124.86 292.7C123.04 293.91 122.75 287.87 120.64 286.7C118.53 285.53 118.8 290 116.39 296C113.98 302 103.1 310.8 97.3898 310.2C91.6798 309.6 84.6998 303.2 80.7698 289.96C76.8398 276.72 79.5698 262.47 86.7698 257.96C88.8808 256.642 91.2868 255.869 93.771 255.712C96.2552 255.554 98.7395 256.018 101 257.06Z" fill="#263571" stroke="#263238" stroke-opacity="0.88" stroke-linecap="round" stroke-linejoin="round"/>
<path d="M124.999 262.75C124.999 262.75 127.399 269.69 121.259 277.42C115.119 285.15 106.859 289.42 100.729 285.69C94.5993 281.96 94.3193 277.69 94.3193 277.69" stroke="#263238" stroke-opacity="0.88" stroke-linecap="round" stroke-linejoin="round"/>
<path d="M84.48 279C84.48 279 83.14 299.83 95.68 302C108.22 304.17 115.15 291 115.15 291" stroke="#263238" stroke-opacity="0.88" stroke-linecap="round" stroke-linejoin="round"/>
<path d="M88.4501 279.407C95.3758 279.407 100.99 273.726 100.99 266.717C100.99 259.709 95.3758 254.027 88.4501 254.027C81.5245 254.027 75.9102 259.709 75.9102 266.717C75.9102 273.726 81.5245 279.407 88.4501 279.407Z" fill="#263571" stroke="#263238" stroke-opacity="0.88" stroke-linecap="round" stroke-linejoin="round"/>
<path d="M85.8096 264.891C85.8096 264.891 87.4096 256.621 91.9396 255.551" stroke="#263238" stroke-opacity="0.88" stroke-linecap="round" stroke-linejoin="round"/>
<path d="M85.2793 265.998C85.2793 265.998 94.3393 262.798 98.6093 266.268" stroke="#263238" stroke-opacity="0.88" stroke-linecap="round" stroke-linejoin="round"/>
<path d="M84.7402 267.551C84.7402 267.551 80.7402 270.221 82.0802 276.361" stroke="#263238" stroke-opacity="0.88" stroke-linecap="round" stroke-linejoin="round"/>
<path d="M122.43 293.599C122.43 293.599 121.52 284.539 118.8 284.839C116.08 285.139 117.29 298.739 118.8 300.839C118.933 301.11 119.133 301.342 119.38 301.514C119.627 301.687 119.915 301.793 120.214 301.824C120.514 301.855 120.817 301.81 121.094 301.691C121.372 301.573 121.615 301.387 121.8 301.149" fill="white"/>
<path d="M122.43 293.599C122.43 293.599 121.52 284.539 118.8 284.839C116.08 285.139 117.29 298.739 118.8 300.839C118.933 301.11 119.133 301.342 119.38 301.514C119.627 301.687 119.915 301.793 120.214 301.824C120.514 301.855 120.817 301.81 121.094 301.691C121.372 301.573 121.615 301.387 121.8 301.149" stroke="#263238" stroke-opacity="0.88" stroke-linecap="round" stroke-linejoin="round"/>
<path d="M377.729 428.9H97.2295L106.689 405.09H314.619L377.729 428.9Z" fill="#B5B5B5" stroke="#263238" stroke-opacity="0.88" stroke-linecap="round" stroke-linejoin="round"/>
<path d="M373.88 433.66H100.34V441.17H373.88V433.66Z" fill="#263238" fill-opacity="0.88" stroke="#263238" stroke-opacity="0.88" stroke-linecap="round" stroke-linejoin="round"/>
<path d="M377.729 428.898H97.2295V437.738H377.729V428.898Z" fill="#4C4C4C" stroke="#263238" stroke-opacity="0.88" stroke-linecap="round" stroke-linejoin="round"/>
<path d="M202.9 408.141L211.03 420.971H145.18L151.59 408.141H202.9Z" fill="white"/>
<path d="M190.5 411.988L198.63 424.808H132.77L139.19 411.988H190.5Z" fill="white"/>
<path d="M110.35 341.328L123 400.228L172.24 407.178C172.24 407.178 187.04 401.178 188.24 401.178C189.44 401.178 191.56 404.798 192.47 406.008C193.38 407.218 194.88 409.008 195.47 409.938C196.06 410.868 196.37 415.368 195.47 416.578C194.57 417.788 192.75 421.108 190.93 420.808C189.11 420.508 190.93 415.678 190.93 415.678C190.93 415.678 180.36 419.898 177.04 419.898C173.72 419.898 167.04 416.898 167.04 416.898C167.04 416.898 111 423.188 107.63 421.998C106.256 421.574 104.984 420.872 103.892 419.936C102.799 419 101.911 417.851 101.28 416.558C100.08 414.148 80.7402 349.498 80.7402 349.498" fill="white"/>
<path d="M110.35 341.328L123 400.228L172.24 407.178C172.24 407.178 187.04 401.178 188.24 401.178C189.44 401.178 191.56 404.798 192.47 406.008C193.38 407.218 194.88 409.008 195.47 409.938C196.06 410.868 196.37 415.368 195.47 416.578C194.57 417.788 192.75 421.108 190.93 420.808C189.11 420.508 190.93 415.678 190.93 415.678C190.93 415.678 180.36 419.898 177.04 419.898C173.72 419.898 167.04 416.898 167.04 416.898C167.04 416.898 111 423.188 107.63 421.998C106.256 421.574 104.984 420.872 103.892 419.936C102.799 419 101.911 417.851 101.28 416.558C100.08 414.148 80.7402 349.498 80.7402 349.498" stroke="#263238" stroke-opacity="0.88" stroke-linecap="round" stroke-linejoin="round"/>
<path d="M192.51 405.998C191.6 404.788 189.51 401.168 188.28 401.168C187.05 401.168 172.28 407.168 172.28 407.168L144.22 403.168C146.049 408.273 146.514 413.768 145.57 419.108C157.28 417.908 167.14 416.788 167.14 416.788C167.14 416.788 173.79 419.788 177.14 419.788C180.49 419.788 191 415.638 191 415.638C191 415.638 189.19 420.468 191 420.768C192.81 421.068 194.63 417.768 195.54 416.538C196.45 415.308 196.14 410.798 195.54 409.898C194.94 408.998 193.41 407.178 192.51 405.998Z" fill="white" stroke="#263238" stroke-opacity="0.88" stroke-linecap="round" stroke-linejoin="round"/>
<path d="M13.7598 441.168H492" stroke="#263238" stroke-opacity="0.88" stroke-linecap="round" stroke-linejoin="round"/>
<path d="M276.459 421.37H329.619V419.66L250.479 407.82L252.399 409.53L276.459 421.37Z" fill="white" stroke="#263238" stroke-opacity="0.88" stroke-linecap="round" stroke-linejoin="round"/>
<path d="M276.459 419.66H329.619L301.539 408.1L252.399 407.82L276.459 419.66Z" fill="white" stroke="#263238" stroke-opacity="0.88" stroke-linecap="round" stroke-linejoin="round"/>
<path d="M285.12 410.451H290.1L287.56 409.391L282.68 409.431L285.12 410.451Z" fill="white" stroke="#263238" stroke-opacity="0.88" stroke-width="0.75" stroke-linecap="round" stroke-linejoin="round"/>
<path d="M295.229 414.68L297.779 415.75H302.759L300.209 414.68H295.229Z" fill="white" stroke="#263238" stroke-opacity="0.88" stroke-width="0.75" stroke-linecap="round" stroke-linejoin="round"/>
<path d="M304.459 413.078H298.949L300.409 413.688H305.939L304.459 413.078Z" fill="white" stroke="#263238" stroke-opacity="0.88" stroke-width="0.75" stroke-linecap="round" stroke-linejoin="round"/>
<path d="M292.849 413.688H297.839L296.379 413.078H291.399L292.849 413.688Z" fill="white" stroke="#263238" stroke-opacity="0.88" stroke-width="0.75" stroke-linecap="round" stroke-linejoin="round"/>
<path d="M296.58 412.089H302.05L300.49 411.449H295.05L296.58 412.089Z" fill="white" stroke="#263238" stroke-opacity="0.88" stroke-width="0.75" stroke-linecap="round" stroke-linejoin="round"/>
<path d="M277.56 410.449H282.55L280.16 409.449L275.27 409.499L277.56 410.449Z" fill="white" stroke="#263238" stroke-opacity="0.88" stroke-width="0.75" stroke-linecap="round" stroke-linejoin="round"/>
<path d="M287.489 411.449L289.019 412.089H294.009L292.479 411.449H287.489Z" fill="white" stroke="#263238" stroke-opacity="0.88" stroke-width="0.75" stroke-linecap="round" stroke-linejoin="round"/>
<path d="M311.92 418.51H317.65L313.37 416.75H307.71L311.92 418.51Z" fill="white" stroke="#263238" stroke-opacity="0.88" stroke-width="0.75" stroke-linecap="round" stroke-linejoin="round"/>
<path d="M300.149 416.75L304.359 418.51H309.349L305.139 416.75H300.149Z" fill="white" stroke="#263238" stroke-opacity="0.88" stroke-width="0.75" stroke-linecap="round" stroke-linejoin="round"/>
<path d="M292.59 416.75L296.8 418.51H301.79L297.58 416.75H292.59Z" fill="white" stroke="#263238" stroke-opacity="0.88" stroke-width="0.75" stroke-linecap="round" stroke-linejoin="round"/>
<path d="M290.019 416.75H280.279L283.759 418.51H294.229L290.019 416.75Z" fill="white" stroke="#263238" stroke-opacity="0.88" stroke-width="0.75" stroke-linecap="round" stroke-linejoin="round"/>
<path d="M292.68 410.45H298.07L295.32 409.32L290.08 409.37L292.68 410.45Z" fill="white" stroke="#263238" stroke-opacity="0.88" stroke-width="0.75" stroke-linecap="round" stroke-linejoin="round"/>
<path d="M302.79 414.68L305.34 415.75H310.96L308.36 414.68H302.79Z" fill="white" stroke="#263238" stroke-opacity="0.88" stroke-width="0.75" stroke-linecap="round" stroke-linejoin="round"/>
<path d="M295.21 415.75L292.65 414.68H287.67L290.22 415.75H295.21Z" fill="white" stroke="#263238" stroke-opacity="0.88" stroke-width="0.75" stroke-linecap="round" stroke-linejoin="round"/>
<path d="M274.99 410.45L272.75 409.52L266.12 409.57L267.85 410.45H274.99Z" fill="white" stroke="#263238" stroke-opacity="0.88" stroke-width="0.75" stroke-linecap="round" stroke-linejoin="round"/>
<path d="M288.82 413.078H283.84L285.29 413.688H290.28L288.82 413.078Z" fill="white" stroke="#263238" stroke-opacity="0.88" stroke-width="0.75" stroke-linecap="round" stroke-linejoin="round"/>
<path d="M279.93 411.449L281.46 412.089H286.45L284.92 411.449H279.93Z" fill="white" stroke="#263238" stroke-opacity="0.88" stroke-width="0.75" stroke-linecap="round" stroke-linejoin="round"/>
<path d="M282.72 413.688L281.27 413.078H273.04L274.25 413.688H282.72Z" fill="white" stroke="#263238" stroke-opacity="0.88" stroke-width="0.75" stroke-linecap="round" stroke-linejoin="round"/>
<path d="M271.079 412.089H278.889L277.359 411.449H269.819L271.079 412.089Z" fill="white" stroke="#263238" stroke-opacity="0.88" stroke-width="0.75" stroke-linecap="round" stroke-linejoin="round"/>
<path d="M285.1 414.68H276.21L278.32 415.75H287.65L285.1 414.68Z" fill="white" stroke="#263238" stroke-opacity="0.88" stroke-width="0.75" stroke-linecap="round" stroke-linejoin="round"/>
<path d="M276.46 419.66H274.54L237.77 366.64L239.59 366.09H263.66L276.46 419.66Z" fill="white" stroke="#263238" stroke-opacity="0.88" stroke-linecap="round" stroke-linejoin="round"/>
<path d="M274.54 419.66L250.48 407.82L237.68 366.09H261.74L274.54 419.66Z" fill="white" stroke="#263238" stroke-opacity="0.88" stroke-linecap="round" stroke-linejoin="round"/>
<path d="M484.92 441.17V376.89C484.92 376.431 484.738 375.991 484.413 375.667C484.089 375.342 483.649 375.16 483.19 375.16H459.77C459.311 375.16 458.871 375.342 458.547 375.667C458.222 375.991 458.04 376.431 458.04 376.89V441.17H484.92Z" fill="#263238" fill-opacity="0.88" stroke="#263238" stroke-opacity="0.88" stroke-linecap="round" stroke-linejoin="round"/>
<path d="M476.45 441.17V376.89C476.451 376.663 476.408 376.437 476.321 376.227C476.235 376.016 476.107 375.825 475.946 375.664C475.785 375.503 475.594 375.376 475.384 375.289C475.173 375.203 474.948 375.159 474.72 375.16H451.31C451.083 375.159 450.857 375.203 450.647 375.289C450.436 375.376 450.245 375.503 450.084 375.664C449.923 375.825 449.796 376.016 449.709 376.227C449.623 376.437 449.579 376.663 449.58 376.89V441.17H476.45Z" fill="#4C4C4C" stroke="#263238" stroke-opacity="0.88" stroke-linecap="round" stroke-linejoin="round"/>
<path d="M382.62 338.688C382.62 338.688 372.3 345.568 371 349.798C369.7 354.028 362 378.108 361.21 379.958C360.42 381.808 354.07 391.598 354.07 391.598L320.21 393.178C320.21 393.178 304.87 389.748 303.54 389.748C302.21 389.748 288.99 398.478 287.93 400.858C286.87 403.238 284.499 406.678 285.549 407.468C286.599 408.258 288.2 406.938 288.2 406.938C288.2 406.938 288.73 410.638 295.34 409.318C301.95 407.998 308.57 403.238 308.57 403.238C308.57 403.238 316.77 407.238 319.94 406.408L320.21 406.328V409.848C320.21 409.848 364.92 412.228 366.77 411.698C368.62 411.168 378.41 399.268 378.41 399.268L389.78 337.888C389.78 337.888 389.23 332.068 382.62 338.688Z" fill="#263571" stroke="#263238" stroke-opacity="0.88" stroke-linecap="round" stroke-linejoin="round"/>
<path d="M320.92 394.1L320.28 393.18H320.19C320.19 393.18 304.85 389.75 303.52 389.75C302.19 389.75 288.97 398.48 287.91 400.86C286.85 403.24 284.48 406.68 285.53 407.47C286.58 408.26 288.18 406.94 288.18 406.94C288.18 406.94 288.71 410.64 295.32 409.32C301.93 408 308.55 403.24 308.55 403.24C308.55 403.24 316.75 407.24 319.92 406.41L320.19 406.33V409.85L320.92 394.1Z" fill="#4C4C4C" stroke="#263238" stroke-opacity="0.88" stroke-linecap="round" stroke-linejoin="round"/>
<path d="M383.88 441.171H384.93C384.12 439.251 383.41 437.491 383.12 436.531C382.28 433.711 372.12 396.991 370.98 391.631C369.84 386.271 370.41 378.631 373.24 367.901C376.07 357.171 382.62 338.691 382.62 338.691L373.24 351.811C373.24 351.811 365.33 382.311 365.33 386.261C365.33 390.211 369.28 410.261 373.24 420.151C375.53 425.881 380.29 434.731 383.88 441.171Z" fill="#263571" stroke="#263238" stroke-opacity="0.88" stroke-linecap="round" stroke-linejoin="round"/>
<path d="M386.85 331.279C386.85 331.279 377.07 346.619 374.42 357.209C371.77 367.799 369.66 377.049 369.66 386.569C369.66 396.089 380.24 423.079 381.83 426.519C383.42 429.959 400.61 431.009 405.9 414.609C411.19 398.209 413.57 350.859 410.4 340.009C407.23 329.159 393.47 324.139 386.85 331.279Z" fill="white" stroke="#263238" stroke-opacity="0.88" stroke-linecap="round" stroke-linejoin="round"/>
<path d="M384.1 329.06C383.45 330.06 374.66 334.92 374.66 334.92L374.33 344.03L376.94 339.15L381 351.24L385.37 328.73L384.1 329.06Z" fill="#808080" stroke="#263238" stroke-opacity="0.88" stroke-linecap="round" stroke-linejoin="round"/>
<path d="M385.08 441.169H457.08C454.71 434.829 445.55 410.269 445.27 409.169C444.94 407.859 437.46 349.919 429.64 339.169C421.82 328.419 403.64 324.519 399.7 326.799C399.7 326.799 386.7 353.169 381.79 365.539C376.88 377.909 373.65 402.319 373.65 405.899C373.65 409.479 380.49 431.899 380.49 431.899L385.08 441.169Z" fill="#263571" stroke="#263238" stroke-opacity="0.88" stroke-linecap="round" stroke-linejoin="round"/>
<path d="M436.94 421.801L405.81 431.071L407.8 435.041L425.02 429.751" stroke="#263238" stroke-opacity="0.88" stroke-linecap="round" stroke-linejoin="round"/>
<path d="M368.71 283.23C368.71 283.23 366.21 290.95 366.15 292.54C366.126 293.725 366.163 294.91 366.26 296.09C366.291 296.723 366.138 297.352 365.82 297.9C365.3 298.74 359.45 304.37 360.14 305.5C360.83 306.63 364.87 311.12 364.87 311.12C364.87 311.12 367.7 324.61 371.49 326.17C375.28 327.73 380.63 326.77 380.63 326.77L382.56 332.04L406.2 324.29L405.84 316.52C405.84 316.52 408.21 302.68 405.49 292.74C402.77 282.8 379.12 272 368.71 283.23Z" fill="white" stroke="#263238" stroke-opacity="0.88" stroke-linecap="round" stroke-linejoin="round"/>
<path d="M369.47 299.09C369.19 300.24 368.6 301.09 368.16 300.98C367.72 300.87 367.58 299.85 367.86 298.7C368.14 297.55 368.72 296.7 369.17 296.81C369.62 296.92 369.74 297.94 369.47 299.09Z" fill="#263238" fill-opacity="0.88"/>
<path d="M367.79 293.851C368.267 293.719 368.766 293.682 369.258 293.744C369.749 293.805 370.223 293.963 370.654 294.209C371.084 294.454 371.461 294.782 371.764 295.173C372.068 295.565 372.29 296.013 372.42 296.491" fill="white"/>
<path d="M367.79 293.851C368.267 293.719 368.766 293.682 369.258 293.744C369.749 293.805 370.223 293.963 370.654 294.209C371.084 294.454 371.461 294.782 371.764 295.173C372.068 295.565 372.29 296.013 372.42 296.491" stroke="#263238" stroke-opacity="0.88" stroke-linecap="round" stroke-linejoin="round"/>
<path d="M365.48 313C365.48 313 368.12 315.65 372.75 314Z" fill="white"/>
<path d="M365.48 313C365.48 313 368.12 315.65 372.75 314" stroke="#263238" stroke-opacity="0.88" stroke-linecap="round" stroke-linejoin="round"/>
<path d="M383.2 264.31C382.449 262.465 381.25 260.837 379.712 259.571C378.174 258.305 376.345 257.442 374.39 257.06C367.65 255.76 362.83 265.16 364.52 268.77C366.21 272.38 366.97 273.2 363.73 273.38C360.49 273.56 354.28 281.99 359.73 287.16C365.18 292.33 371.79 284.94 372.12 287.58C372.45 290.22 371.56 292.58 374.73 292.69C377.9 292.8 383.11 292.47 382.29 294.52C381.47 296.57 381.29 301.32 384.29 302.05C387.29 302.78 389.17 299.05 391.29 299.58C393.41 300.11 396.29 306.86 394.4 310.58C392.51 314.3 391.26 314.31 391.04 315.22C390.82 316.13 396.69 322.34 402.72 321.22C408.75 320.1 416.59 318.16 417.51 311.66C418.43 305.16 416.51 303.74 419.01 301.46C421.51 299.18 423.9 298.46 423.19 294.78C422.48 291.1 420.19 289.9 420.93 286.87C421.67 283.84 418.66 270 405.7 264C392.74 258 383.2 264.31 383.2 264.31Z" fill="#263238" fill-opacity="0.88" stroke="#263238" stroke-opacity="0.88" stroke-linecap="round" stroke-linejoin="round"/>
<path d="M408.69 316.98L378.89 334.27L381.03 351.24L412.83 325.96L408.69 316.98Z" fill="white" stroke="#263238" stroke-opacity="0.88" stroke-linecap="round" stroke-linejoin="round"/>
<path d="M330.72 397.42C330.72 397.42 324.72 395.19 320.92 394.1C314.4 392.23 308.29 389.45 306.01 390.1C303.73 390.75 292.63 398.39 292.63 398.39C292.63 398.39 288.72 407.83 289.05 409.14C289.38 410.45 291.76 408.34 291.76 408.34C291.76 408.34 290.35 410.11 291.65 411.42C292.95 412.73 294.26 410.11 294.26 410.11C294.26 410.11 293.93 413.37 295.88 413.04C296.381 413.021 296.862 412.837 297.249 412.517C297.636 412.197 297.907 411.759 298.02 411.27C298.02 411.27 298.16 413.04 299.79 413.04C301.42 413.04 305 406.21 305 406.21L311.18 406.53C311.18 406.53 316.07 409.14 319 409.46C321.93 409.78 325.51 407.83 325.51 407.83L329.41 408.83L332.67 399.39L330.72 397.42Z" fill="white" stroke="#263238" stroke-opacity="0.88" stroke-linecap="round" stroke-linejoin="round"/>
<path d="M291.76 408.339C291.76 408.339 295.09 400.339 295.62 399.819C296.15 399.299 302.81 395.559 302.81 395.559" stroke="#263238" stroke-opacity="0.88" stroke-linecap="round" stroke-linejoin="round"/>
<path d="M294.26 410.109C294.26 410.109 298.26 401.949 298.69 401.549C299.12 401.149 304.14 398.629 304.14 398.629" stroke="#263238" stroke-opacity="0.88" stroke-linecap="round" stroke-linejoin="round"/>
<path d="M298 411.27C298 411.27 301.86 403.82 302.53 403.42C303.2 403.02 304.92 402.09 304.92 402.09" stroke="#263238" stroke-opacity="0.88" stroke-linecap="round" stroke-linejoin="round"/>
<path d="M417 338.5C417 338.5 396.49 351.84 396.82 357.05C397.15 362.26 398.77 362.26 398.77 362.26L388.35 401.32C388.35 401.32 385.1 398.72 384.77 401.98L384.45 405.23L330.08 396.12L324.55 409.79C324.55 409.79 347.01 418.58 362.64 424.11C378.27 429.64 394.54 435.83 396.16 432.9C397.78 429.97 430 381.79 432 378.21C434 374.63 434 368.12 434 368.12" fill="#263571"/>
<path d="M417 338.5C417 338.5 396.49 351.84 396.82 357.05C397.15 362.26 398.77 362.26 398.77 362.26L388.35 401.32C388.35 401.32 385.1 398.72 384.77 401.98L384.45 405.23L330.08 396.12L324.55 409.79C324.55 409.79 347.01 418.58 362.64 424.11C378.27 429.64 394.54 435.83 396.16 432.9C397.78 429.97 430 381.79 432 378.21C434 374.63 434 368.12 434 368.12" stroke="#263238" stroke-opacity="0.88" stroke-linecap="round" stroke-linejoin="round"/>
<path d="M398.75 362.26C398.75 362.26 404.93 349.57 419.91 348.59" stroke="#263238" stroke-opacity="0.88" stroke-linecap="round" stroke-linejoin="round"/>
</svg>
